<svg class="main-svg" xmlns="http://www.w3.org/2000/svg" xmlns:xlink="http://www.w3.org/1999/xlink" width="1500" height="1200" style="" viewBox="0 0 1500 1200"><rect x="0" y="0" width="1500" height="1200" style="fill: rgb(255, 255, 255); fill-opacity: 1;"/><defs id="defs-70a5f9"><g class="clips"><clipPath id="clip70a5f9xyplot" class="plotclip"><rect width="621.6" height="469.2"/></clipPath><clipPath id="clip70a5f9x2y2plot" class="plotclip"><rect width="621.6" height="469.2"/></clipPath><clipPath id="clip70a5f9x3y3plot" class="plotclip"><rect width="621.6" height="469.20000000000005"/></clipPath><clipPath id="clip70a5f9x4y4plot" class="plotclip"><rect width="621.6" height="469.20000000000005"/></clipPath><clipPath class="axesclip" id="clip70a5f9x"><rect x="80" y="0" width="621.6" height="1200"/></clipPath><clipPath class="axesclip" id="clip70a5f9y"><rect x="0" y="100" width="1500" height="469.2"/></clipPath><clipPath class="axesclip" id="clip70a5f9xy"><rect x="80" y="100" width="621.6" height="469.2"/></clipPath><clipPath class="axesclip" id="clip70a5f9y2"><rect x="0" y="100" width="1500" height="469.2"/></clipPath><clipPath class="axesclip" id="clip70a5f9xy2"><rect x="80" y="100" width="621.6" height="469.2"/></clipPath><clipPath class="axesclip" id="clip70a5f9y3"><rect x="0" y="650.8000000000001" width="1500" height="469.20000000000005"/></clipPath><clipPath class="axesclip" id="clip70a5f9xy3"><rect x="80" y="650.8000000000001" width="621.6" height="469.20000000000005"/></clipPath><clipPath class="axesclip" id="clip70a5f9y4"><rect x="0" y="650.8000000000001" width="1500" height="469.20000000000005"/></clipPath><clipPath class="axesclip" id="clip70a5f9xy4"><rect x="80" y="650.8000000000001" width="621.6" height="469.20000000000005"/></clipPath><clipPath class="axesclip" id="clip70a5f9x2"><rect x="753.4" y="0" width="621.6" height="1200"/></clipPath><clipPath class="axesclip" id="clip70a5f9x2y"><rect x="753.4" y="100" width="621.6" height="469.2"/></clipPath><clipPath class="axesclip" id="clip70a5f9x2y2"><rect x="753.4" y="100" width="621.6" height="469.2"/></clipPath><clipPath class="axesclip" id="clip70a5f9x2y3"><rect x="753.4" y="650.8000000000001" width="621.6" height="469.20000000000005"/></clipPath><clipPath class="axesclip" id="clip70a5f9x2y4"><rect x="753.4" y="650.8000000000001" width="621.6" height="469.20000000000005"/></clipPath><clipPath class="axesclip" id="clip70a5f9x3"><rect x="80" y="0" width="621.6" height="1200"/></clipPath><clipPath class="axesclip" id="clip70a5f9x3y"><rect x="80" y="100" width="621.6" height="469.2"/></clipPath><clipPath class="axesclip" id="clip70a5f9x3y2"><rect x="80" y="100" width="621.6" height="469.2"/></clipPath><clipPath class="axesclip" id="clip70a5f9x3y3"><rect x="80" y="650.8000000000001" width="621.6" height="469.20000000000005"/></clipPath><clipPath class="axesclip" id="clip70a5f9x3y4"><rect x="80" y="650.8000000000001" width="621.6" height="469.20000000000005"/></clipPath><clipPath class="axesclip" id="clip70a5f9x4"><rect x="753.4" y="0" width="621.6" height="1200"/></clipPath><clipPath class="axesclip" id="clip70a5f9x4y"><rect x="753.4" y="100" width="621.6" height="469.2"/></clipPath><clipPath class="axesclip" id="clip70a5f9x4y2"><rect x="753.4" y="100" width="621.6" height="469.2"/></clipPath><clipPath class="axesclip" id="clip70a5f9x4y3"><rect x="753.4" y="650.8000000000001" width="621.6" height="469.20000000000005"/></clipPath><clipPath class="axesclip" id="clip70a5f9x4y4"><rect x="753.4" y="650.8000000000001" width="621.6" height="469.20000000000005"/></clipPath></g><g class="gradients"/><g class="patterns"/></defs><g class="bglayer"/><g class="layer-below"><g class="imagelayer"/><g class="shapelayer"/></g><g class="cartesianlayer"><g class="subplot xy"><g class="layer-subplot"><g class="shapelayer"/><g class="imagelayer"/></g><g class="minor-gridlayer"><g class="x"/><g class="y"/></g><g class="gridlayer"><g class="x"/><g class="y"/></g><g class="zerolinelayer"/><g class="layer-between"><g class="shapelayer"/><g class="imagelayer"/></g><path class="xlines-below"/><path class="ylines-below"/><g class="overlines-below"/><g class="xaxislayer-below"/><g class="yaxislayer-below"/><g class="overaxes-below"/><g class="overplot"><g class="xy" transform="translate(80,100)" clip-path="url(#clip70a5f9xyplot)"><g class="scatterlayer mlayer"><g class="trace scatter trace1d4706" style="stroke-miterlimit: 2; opacity: 1;"><g class="fills"/><g class="errorbars"/><g class="lines"><path class="js-line" d="M0,84.1L21.43,95.13L42.87,59.19L64.3,44.13L85.74,45.83L107.17,29.72L128.61,38.51L150.04,35.02L171.48,28.02L192.91,38.41L214.34,26.75L235.78,29.08L257.21,27.59L278.65,35.65L300.08,28.55L321.52,32.15L342.95,29.4L364.39,39.89L385.82,38.73L407.26,33.21L428.69,28.76L450.12,30.14L471.56,25.26L492.99,35.44L514.43,25.26L535.86,23.46L557.3,24.73L578.73,23.99L600.17,24.63L621.6,24.31" style="vector-effect: none; fill: none; stroke: rgb(99, 110, 250); stroke-opacity: 1; stroke-width: 2px; opacity: 1;"/></g><g class="points"/><g class="text"/></g><g class="trace scatter tracef4c2d5" style="stroke-miterlimit: 2; opacity: 1;"><g class="fills"/><g class="errorbars"/><g class="lines"><path class="js-line" d="M0,169.03L21.43,105.63L42.87,86.33L64.3,81.88L85.74,74.03L107.17,59.08L128.61,74.24L150.04,52.19L171.48,58.87L192.91,52.3L214.34,50.71L235.78,46.47L257.21,50.6L278.65,46.04L300.08,42.65L321.52,51.56L342.95,50.81L364.39,48.37L385.82,57.07L407.26,56.75L428.69,51.77L450.12,58.34L471.56,44.13L492.99,45.19L514.43,40.95L535.86,46.89L557.3,43.82L578.73,43.5L600.17,48.06L621.6,40.42" style="vector-effect: none; fill: none; stroke: rgb(239, 85, 59); stroke-opacity: 1; stroke-width: 2px; opacity: 1;"/></g><g class="points"/><g class="text"/></g><g class="trace scatter tracec19db5" style="stroke-miterlimit: 2; opacity: 1;"><g class="fills"/><g class="errorbars"/><g class="lines"><path class="js-line" d="M0,172.52L21.43,101.81L42.87,86.86L64.3,96.08L85.74,82.94L107.17,63.32L128.61,57.7L150.04,53.57L171.48,59.83L192.91,50.6L214.34,66.61L235.78,54.42L257.21,53.99L300.08,57.17L321.52,52.51L342.95,51.45L364.39,47.31L385.82,46.36L407.26,48.69L428.69,61.52L450.12,57.81L492.99,57.6L514.43,53.99L535.86,56.22L557.3,57.39L578.73,60.78L600.17,51.77L621.6,63.43" style="vector-effect: none; fill: none; stroke: rgb(0, 204, 150); stroke-opacity: 1; stroke-width: 2px; opacity: 1;"/></g><g class="points"/><g class="text"/></g><g class="trace scatter trace67e293" style="stroke-miterlimit: 2; opacity: 1;"><g class="fills"/><g class="errorbars"/><g class="lines"><path class="js-line" d="M0,445.74L21.43,401.74L42.87,230.94L64.3,184.93L85.74,184.93L107.17,166.59L128.61,183.13L150.04,117.29L171.48,146.23L192.91,112.84L214.34,82.51L235.78,92.37L257.21,110.08L278.65,98.73L300.08,99.37L321.52,127.57L342.95,96.4L385.82,68.41L407.26,66.72L428.69,64.6L450.12,54.84L471.56,54.74L492.99,59.08L514.43,61.42L535.86,55.9L557.3,57.92L578.73,48.48L600.17,43.71L621.6,60.14" style="vector-effect: none; fill: none; stroke: rgb(171, 99, 250); stroke-opacity: 1; stroke-width: 2px; opacity: 1;"/></g><g class="points"/><g class="text"/></g></g></g></g><g class="zerolinelayer-above"/><path class="xlines-above crisp" d="M79,569.7H701.6" style="fill: none; stroke-width: 1px; stroke: rgb(36, 36, 36); stroke-opacity: 1;"/><path class="ylines-above crisp" d="M79.5,100V569.2" style="fill: none; stroke-width: 1px; stroke: rgb(36, 36, 36); stroke-opacity: 1;"/><g class="overlines-above"/><g class="xaxislayer-above"><path class="xtick ticks crisp" d="M0,570.2v5" transform="translate(80,0)" style="stroke: rgb(68, 68, 68); stroke-opacity: 1; stroke-width: 1px;"/><path class="xtick ticks crisp" d="M0,570.2v5" transform="translate(187.17000000000002,0)" style="stroke: rgb(68, 68, 68); stroke-opacity: 1; stroke-width: 1px;"/><path class="xtick ticks crisp" d="M0,570.2v5" transform="translate(294.34000000000003,0)" style="stroke: rgb(68, 68, 68); stroke-opacity: 1; stroke-width: 1px;"/><path class="xtick ticks crisp" d="M0,570.2v5" transform="translate(401.52,0)" style="stroke: rgb(68, 68, 68); stroke-opacity: 1; stroke-width: 1px;"/><path class="xtick ticks crisp" d="M0,570.2v5" transform="translate(508.69,0)" style="stroke: rgb(68, 68, 68); stroke-opacity: 1; stroke-width: 1px;"/><path class="xtick ticks crisp" d="M0,570.2v5" transform="translate(615.86,0)" style="stroke: rgb(68, 68, 68); stroke-opacity: 1; stroke-width: 1px;"/><g class="xtick"><text text-anchor="middle" x="0" y="589.6" transform="translate(80,0)" style="font-family: 'Open Sans', verdana, arial, sans-serif; font-size: 12px; fill: rgb(36, 36, 36); fill-opacity: 1; white-space: pre;">0</text></g><g class="xtick"><text text-anchor="middle" x="0" y="589.6" style="font-family: 'Open Sans', verdana, arial, sans-serif; font-size: 12px; fill: rgb(36, 36, 36); fill-opacity: 1; white-space: pre;" transform="translate(187.17000000000002,0)">5</text></g><g class="xtick"><text text-anchor="middle" x="0" y="589.6" style="font-family: 'Open Sans', verdana, arial, sans-serif; font-size: 12px; fill: rgb(36, 36, 36); fill-opacity: 1; white-space: pre;" transform="translate(294.34000000000003,0)">10</text></g><g class="xtick"><text text-anchor="middle" x="0" y="589.6" style="font-family: 'Open Sans', verdana, arial, sans-serif; font-size: 12px; fill: rgb(36, 36, 36); fill-opacity: 1; white-space: pre;" transform="translate(401.52,0)">15</text></g><g class="xtick"><text text-anchor="middle" x="0" y="589.6" style="font-family: 'Open Sans', verdana, arial, sans-serif; font-size: 12px; fill: rgb(36, 36, 36); fill-opacity: 1; white-space: pre;" transform="translate(508.69,0)">20</text></g><g class="xtick"><text text-anchor="middle" x="0" y="589.6" style="font-family: 'Open Sans', verdana, arial, sans-serif; font-size: 12px; fill: rgb(36, 36, 36); fill-opacity: 1; white-space: pre;" transform="translate(615.86,0)">25</text></g></g><g class="yaxislayer-above"><path class="ytick ticks crisp" d="M79,0h-5" transform="translate(0,543)" style="stroke: rgb(68, 68, 68); stroke-opacity: 1; stroke-width: 1px;"/><path class="ytick ticks crisp" d="M79,0h-5" transform="translate(0,488.04)" style="stroke: rgb(68, 68, 68); stroke-opacity: 1; stroke-width: 1px;"/><path class="ytick ticks crisp" d="M79,0h-5" transform="translate(0,433.08)" style="stroke: rgb(68, 68, 68); stroke-opacity: 1; stroke-width: 1px;"/><path class="ytick ticks crisp" d="M79,0h-5" transform="translate(0,378.12)" style="stroke: rgb(68, 68, 68); stroke-opacity: 1; stroke-width: 1px;"/><path class="ytick ticks crisp" d="M79,0h-5" transform="translate(0,323.15999999999997)" style="stroke: rgb(68, 68, 68); stroke-opacity: 1; stroke-width: 1px;"/><path class="ytick ticks crisp" d="M79,0h-5" transform="translate(0,268.2)" style="stroke: rgb(68, 68, 68); stroke-opacity: 1; stroke-width: 1px;"/><path class="ytick ticks crisp" d="M79,0h-5" transform="translate(0,213.24)" style="stroke: rgb(68, 68, 68); stroke-opacity: 1; stroke-width: 1px;"/><path class="ytick ticks crisp" d="M79,0h-5" transform="translate(0,158.28)" style="stroke: rgb(68, 68, 68); stroke-opacity: 1; stroke-width: 1px;"/><path class="ytick ticks crisp" d="M79,0h-5" transform="translate(0,103.32)" style="stroke: rgb(68, 68, 68); stroke-opacity: 1; stroke-width: 1px;"/><g class="ytick"><text text-anchor="end" x="71.6" y="4.199999999999999" transform="translate(0,543)" style="font-family: 'Open Sans', verdana, arial, sans-serif; font-size: 12px; fill: rgb(36, 36, 36); fill-opacity: 1; white-space: pre;">0.2</text></g><g class="ytick"><text text-anchor="end" x="71.6" y="4.199999999999999" style="font-family: 'Open Sans', verdana, arial, sans-serif; font-size: 12px; fill: rgb(36, 36, 36); fill-opacity: 1; white-space: pre;" transform="translate(0,488.04)">0.3</text></g><g class="ytick"><text text-anchor="end" x="71.6" y="4.199999999999999" style="font-family: 'Open Sans', verdana, arial, sans-serif; font-size: 12px; fill: rgb(36, 36, 36); fill-opacity: 1; white-space: pre;" transform="translate(0,433.08)">0.4</text></g><g class="ytick"><text text-anchor="end" x="71.6" y="4.199999999999999" style="font-family: 'Open Sans', verdana, arial, sans-serif; font-size: 12px; fill: rgb(36, 36, 36); fill-opacity: 1; white-space: pre;" transform="translate(0,378.12)">0.5</text></g><g class="ytick"><text text-anchor="end" x="71.6" y="4.199999999999999" style="font-family: 'Open Sans', verdana, arial, sans-serif; font-size: 12px; fill: rgb(36, 36, 36); fill-opacity: 1; white-space: pre;" transform="translate(0,323.15999999999997)">0.6</text></g><g class="ytick"><text text-anchor="end" x="71.6" y="4.199999999999999" style="font-family: 'Open Sans', verdana, arial, sans-serif; font-size: 12px; fill: rgb(36, 36, 36); fill-opacity: 1; white-space: pre;" transform="translate(0,268.2)">0.7</text></g><g class="ytick"><text text-anchor="end" x="71.6" y="4.199999999999999" style="font-family: 'Open Sans', verdana, arial, sans-serif; font-size: 12px; fill: rgb(36, 36, 36); fill-opacity: 1; white-space: pre;" transform="translate(0,213.24)">0.8</text></g><g class="ytick"><text text-anchor="end" x="71.6" y="4.199999999999999" style="font-family: 'Open Sans', verdana, arial, sans-serif; font-size: 12px; fill: rgb(36, 36, 36); fill-opacity: 1; white-space: pre;" transform="translate(0,158.28)">0.9</text></g><g class="ytick"><text text-anchor="end" x="71.6" y="4.199999999999999" style="font-family: 'Open Sans', verdana, arial, sans-serif; font-size: 12px; fill: rgb(36, 36, 36); fill-opacity: 1; white-space: pre;" transform="translate(0,103.32)">1</text></g></g><g class="overaxes-above"/></g><g class="subplot x2y2"><g class="layer-subplot"><g class="shapelayer"/><g class="imagelayer"/></g><g class="minor-gridlayer"><g class="x2"/><g class="y2"/></g><g class="gridlayer"><g class="x2"/><g class="y2"/></g><g class="zerolinelayer"/><g class="layer-between"><g class="shapelayer"/><g class="imagelayer"/></g><path class="xlines-below"/><path class="ylines-below"/><g class="overlines-below"/><g class="xaxislayer-below"/><g class="yaxislayer-below"/><g class="overaxes-below"/><g class="overplot"><g class="x2y2" transform="translate(753.4,100)" clip-path="url(#clip70a5f9x2y2plot)"><g class="scatterlayer mlayer"><g class="trace scatter traced0a085" style="stroke-miterlimit: 2; opacity: 1;"><g class="fills"/><g class="errorbars"/><g class="lines"><path class="js-line" d="M0,386.79L21.43,380.88L42.87,418.08L64.3,433.57L85.74,427.94L107.17,445.48L128.61,437.05L150.04,439.48L171.48,445.74L192.91,431.48L214.34,445.33L235.78,435.8L257.21,445.49L278.65,433.31L300.08,439.07L321.52,432.06L342.95,429.78L364.39,421.67L385.82,423.63L428.69,427.88L450.12,430.67L471.56,436.49L492.99,431.54L514.43,441.02L535.86,437.87L557.3,432.26L578.73,433.13L621.6,431.45" style="vector-effect: none; fill: none; stroke: rgb(99, 110, 250); stroke-opacity: 1; stroke-width: 2px; opacity: 1;"/></g><g class="points"/><g class="text"/></g><g class="trace scatter trace0e02f4" style="stroke-miterlimit: 2; opacity: 1;"><g class="fills"/><g class="errorbars"/><g class="lines"><path class="js-line" d="M0,307.59L21.43,372.64L42.87,392.01L64.3,390.53L85.74,404.87L107.17,413.11L128.61,397.22L150.04,423.45L171.48,408.4L192.91,414.09L214.34,415.25L235.78,413.4L257.21,409.34L278.65,414.06L300.08,421.43L321.52,406.92L342.95,402.11L364.39,411.68L385.82,390.71L407.26,386.44L428.69,370.05L450.12,357.7L471.56,406.34L492.99,410.12L514.43,388.48L535.86,386.7L557.3,395.76L578.73,406.55L600.17,396.77L621.6,402.63" style="vector-effect: none; fill: none; stroke: rgb(239, 85, 59); stroke-opacity: 1; stroke-width: 2px; opacity: 1;"/></g><g class="points"/><g class="text"/></g><g class="trace scatter trace777b47" style="stroke-miterlimit: 2; opacity: 1;"><g class="fills"/><g class="errorbars"/><g class="lines"><path class="js-line" d="M0,293.04L21.43,372.09L42.87,387.76L64.3,387.17L85.74,389.39L107.17,406.19L128.61,413.58L150.04,419.82L171.48,413.97L192.91,412.8L214.34,399.52L235.78,397.08L257.21,404.62L278.65,390.07L300.08,396.14L342.95,380.34L364.39,389.08L385.82,388.55L407.26,393.63L428.69,363.02L450.12,373.29L492.99,372.17L514.43,383.1L535.86,352.89L557.3,329.49L578.73,376.31L600.17,367.9L621.6,363.49" style="vector-effect: none; fill: none; stroke: rgb(0, 204, 150); stroke-opacity: 1; stroke-width: 2px; opacity: 1;"/></g><g class="points"/><g class="text"/></g><g class="trace scatter trace1ddb9f" style="stroke-miterlimit: 2; opacity: 1;"><g class="fills"/><g class="errorbars"/><g class="lines"><path class="js-line" d="M0,23.46L21.43,45.3L42.87,252.4L64.3,295.17L85.74,295.9L107.17,304.21L128.61,295.65L150.04,353.05L171.48,315.11L192.91,360.4L214.34,386.3L235.78,380.46L257.21,360.8L278.65,373.92L300.08,372.8L321.52,343.49L342.95,374.3L364.39,388.78L385.82,405.32L407.26,405.82L428.69,408.51L450.12,421.52L471.56,418.78L492.99,417.23L514.43,406.46L535.86,417.58L557.3,415.87L578.73,423.87L600.17,425.19L621.6,411.2" style="vector-effect: none; fill: none; stroke: rgb(171, 99, 250); stroke-opacity: 1; stroke-width: 2px; opacity: 1;"/></g><g class="points"/><g class="text"/></g></g></g></g><g class="zerolinelayer-above"/><path class="xlines-above crisp" d="M752.4,569.7H1375" style="fill: none; stroke-width: 1px; stroke: rgb(36, 36, 36); stroke-opacity: 1;"/><path class="ylines-above crisp" d="M752.9,100V569.2" style="fill: none; stroke-width: 1px; stroke: rgb(36, 36, 36); stroke-opacity: 1;"/><g class="overlines-above"/><g class="xaxislayer-above"><path class="x2tick ticks crisp" d="M0,570.2v5" transform="translate(753.4,0)" style="stroke: rgb(68, 68, 68); stroke-opacity: 1; stroke-width: 1px;"/><path class="x2tick ticks crisp" d="M0,570.2v5" transform="translate(860.5699999999999,0)" style="stroke: rgb(68, 68, 68); stroke-opacity: 1; stroke-width: 1px;"/><path class="x2tick ticks crisp" d="M0,570.2v5" transform="translate(967.74,0)" style="stroke: rgb(68, 68, 68); stroke-opacity: 1; stroke-width: 1px;"/><path class="x2tick ticks crisp" d="M0,570.2v5" transform="translate(1074.92,0)" style="stroke: rgb(68, 68, 68); stroke-opacity: 1; stroke-width: 1px;"/><path class="x2tick ticks crisp" d="M0,570.2v5" transform="translate(1182.09,0)" style="stroke: rgb(68, 68, 68); stroke-opacity: 1; stroke-width: 1px;"/><path class="x2tick ticks crisp" d="M0,570.2v5" transform="translate(1289.26,0)" style="stroke: rgb(68, 68, 68); stroke-opacity: 1; stroke-width: 1px;"/><g class="x2tick"><text text-anchor="middle" x="0" y="589.6" transform="translate(753.4,0)" style="font-family: 'Open Sans', verdana, arial, sans-serif; font-size: 12px; fill: rgb(36, 36, 36); fill-opacity: 1; white-space: pre;">0</text></g><g class="x2tick"><text text-anchor="middle" x="0" y="589.6" style="font-family: 'Open Sans', verdana, arial, sans-serif; font-size: 12px; fill: rgb(36, 36, 36); fill-opacity: 1; white-space: pre;" transform="translate(860.5699999999999,0)">5</text></g><g class="x2tick"><text text-anchor="middle" x="0" y="589.6" style="font-family: 'Open Sans', verdana, arial, sans-serif; font-size: 12px; fill: rgb(36, 36, 36); fill-opacity: 1; white-space: pre;" transform="translate(967.74,0)">10</text></g><g class="x2tick"><text text-anchor="middle" x="0" y="589.6" style="font-family: 'Open Sans', verdana, arial, sans-serif; font-size: 12px; fill: rgb(36, 36, 36); fill-opacity: 1; white-space: pre;" transform="translate(1074.92,0)">15</text></g><g class="x2tick"><text text-anchor="middle" x="0" y="589.6" style="font-family: 'Open Sans', verdana, arial, sans-serif; font-size: 12px; fill: rgb(36, 36, 36); fill-opacity: 1; white-space: pre;" transform="translate(1182.09,0)">20</text></g><g class="x2tick"><text text-anchor="middle" x="0" y="589.6" style="font-family: 'Open Sans', verdana, arial, sans-serif; font-size: 12px; fill: rgb(36, 36, 36); fill-opacity: 1; white-space: pre;" transform="translate(1289.26,0)">25</text></g></g><g class="yaxislayer-above"><path class="y2tick ticks crisp" d="M752.4,0h-5" transform="translate(0,466.76)" style="stroke: rgb(68, 68, 68); stroke-opacity: 1; stroke-width: 1px;"/><path class="y2tick ticks crisp" d="M752.4,0h-5" transform="translate(0,353.15)" style="stroke: rgb(68, 68, 68); stroke-opacity: 1; stroke-width: 1px;"/><path class="y2tick ticks crisp" d="M752.4,0h-5" transform="translate(0,239.54)" style="stroke: rgb(68, 68, 68); stroke-opacity: 1; stroke-width: 1px;"/><path class="y2tick ticks crisp" d="M752.4,0h-5" transform="translate(0,125.93)" style="stroke: rgb(68, 68, 68); stroke-opacity: 1; stroke-width: 1px;"/><g class="y2tick"><text text-anchor="end" x="745" y="4.199999999999999" transform="translate(0,466.76)" style="font-family: 'Open Sans', verdana, arial, sans-serif; font-size: 12px; fill: rgb(36, 36, 36); fill-opacity: 1; white-space: pre;">0.5</text></g><g class="y2tick"><text text-anchor="end" x="745" y="4.199999999999999" style="font-family: 'Open Sans', verdana, arial, sans-serif; font-size: 12px; fill: rgb(36, 36, 36); fill-opacity: 1; white-space: pre;" transform="translate(0,353.15)">1</text></g><g class="y2tick"><text text-anchor="end" x="745" y="4.199999999999999" style="font-family: 'Open Sans', verdana, arial, sans-serif; font-size: 12px; fill: rgb(36, 36, 36); fill-opacity: 1; white-space: pre;" transform="translate(0,239.54)">1.5</text></g><g class="y2tick"><text text-anchor="end" x="745" y="4.199999999999999" style="font-family: 'Open Sans', verdana, arial, sans-serif; font-size: 12px; fill: rgb(36, 36, 36); fill-opacity: 1; white-space: pre;" transform="translate(0,125.93)">2</text></g></g><g class="overaxes-above"/></g><g class="subplot x3y3"><g class="layer-subplot"><g class="shapelayer"/><g class="imagelayer"/></g><g class="minor-gridlayer"><g class="x3"/><g class="y3"/></g><g class="gridlayer"><g class="x3"/><g class="y3"/></g><g class="zerolinelayer"/><g class="layer-between"><g class="shapelayer"/><g class="imagelayer"/></g><path class="xlines-below"/><path class="ylines-below"/><g class="overlines-below"/><g class="xaxislayer-below"/><g class="yaxislayer-below"/><g class="overaxes-below"/><g class="overplot"><g class="x3y3" transform="translate(80,650.8000000000001)" clip-path="url(#clip70a5f9x3y3plot)"><g class="scatterlayer mlayer"><g class="trace scatter trace60c75c" style="stroke-miterlimit: 2; opacity: 1;"><g class="fills"/><g class="errorbars"/><g class="lines"><path class="js-line" d="M0,227.15L21.43,96.29L42.87,77.21L64.3,61.61L85.74,50.28L107.17,48.44L128.61,44.08L150.04,44.43L171.48,39.48L192.91,35.37L214.34,37.53L235.78,31.8L257.21,31.37L278.65,30.72L300.08,32.74L321.52,28.96L342.95,26.26L364.39,28.27L385.82,28.35L407.26,33.67L428.69,27.5L450.12,27.28L471.56,25.05L492.99,28.82L514.43,26.76L535.86,24.28L557.3,23.46L621.6,23.46" style="vector-effect: none; fill: none; stroke: rgb(99, 110, 250); stroke-opacity: 1; stroke-width: 2px; opacity: 1;"/></g><g class="points"/><g class="text"/></g><g class="trace scatter trace32007f" style="stroke-miterlimit: 2; opacity: 1;"><g class="fills"/><g class="errorbars"/><g class="lines"><path class="js-line" d="M0,251.84L21.43,139.67L42.87,106.63L64.3,92.28L85.74,80.56L107.17,72.24L128.61,61.69L171.48,57.04L192.91,45.79L214.34,43.32L235.78,41.84L257.21,41.37L278.65,38.88L300.08,35.77L321.52,31.28L342.95,32.86L364.39,42.04L385.82,30.63L407.26,28.7L428.69,27.62L450.12,27.84L471.56,32.78L492.99,30.24L514.43,24.45L535.86,24.96L557.3,27.28L578.73,28.62L600.17,26.94L621.6,27.89" style="vector-effect: none; fill: none; stroke: rgb(239, 85, 59); stroke-opacity: 1; stroke-width: 2px; opacity: 1;"/></g><g class="points"/><g class="text"/></g><g class="trace scatter tracec5d27e" style="stroke-miterlimit: 2; opacity: 1;"><g class="fills"/><g class="errorbars"/><g class="lines"><path class="js-line" d="M0,260.15L21.43,148.3L42.87,117L64.3,97.24L85.74,85.24L107.17,69.39L128.61,59.24L171.48,50.7L192.91,45.05L214.34,45.91L235.78,39.01L257.21,36.89L278.65,36.93L300.08,34.92L321.52,30.45L342.95,30.22L364.39,31.63L385.82,30.29L407.26,30.41L428.69,26.43L450.12,29.51L471.56,29.35L492.99,26.73L514.43,29.04L535.86,25.44L557.3,26.36L578.73,30.5L600.17,26.21L621.6,29.64" style="vector-effect: none; fill: none; stroke: rgb(0, 204, 150); stroke-opacity: 1; stroke-width: 2px; opacity: 1;"/></g><g class="points"/><g class="text"/></g><g class="trace scatter trace65f1ed" style="stroke-miterlimit: 2; opacity: 1;"><g class="fills"/><g class="errorbars"/><g class="lines"><path class="js-line" d="M0,445.74L21.43,432.07L42.87,309.59L64.3,220.55L85.74,197.04L107.17,175.73L128.61,170.25L150.04,150.92L171.48,125.76L192.91,123.73L214.34,116.55L235.78,127.24L257.21,127.98L278.65,123.07L300.08,117.39L321.52,102.83L342.95,105.91L364.39,93.76L385.82,85.1L407.26,85L428.69,79.99L450.12,74.8L471.56,77.3L492.99,75.63L514.43,72.48L557.3,63.88L578.73,66.66L600.17,63.15L621.6,61.72" style="vector-effect: none; fill: none; stroke: rgb(171, 99, 250); stroke-opacity: 1; stroke-width: 2px; opacity: 1;"/></g><g class="points"/><g class="text"/></g></g></g></g><g class="zerolinelayer-above"/><path class="xlines-above crisp" d="M79,1120.5H701.6" style="fill: none; stroke-width: 1px; stroke: rgb(36, 36, 36); stroke-opacity: 1;"/><path class="ylines-above crisp" d="M79.5,650.8000000000001V1120" style="fill: none; stroke-width: 1px; stroke: rgb(36, 36, 36); stroke-opacity: 1;"/><g class="overlines-above"/><g class="xaxislayer-above"><path class="x3tick ticks crisp" d="M0,1121v5" transform="translate(80,0)" style="stroke: rgb(68, 68, 68); stroke-opacity: 1; stroke-width: 1px;"/><path class="x3tick ticks crisp" d="M0,1121v5" transform="translate(187.17000000000002,0)" style="stroke: rgb(68, 68, 68); stroke-opacity: 1; stroke-width: 1px;"/><path class="x3tick ticks crisp" d="M0,1121v5" transform="translate(294.34000000000003,0)" style="stroke: rgb(68, 68, 68); stroke-opacity: 1; stroke-width: 1px;"/><path class="x3tick ticks crisp" d="M0,1121v5" transform="translate(401.52,0)" style="stroke: rgb(68, 68, 68); stroke-opacity: 1; stroke-width: 1px;"/><path class="x3tick ticks crisp" d="M0,1121v5" transform="translate(508.69,0)" style="stroke: rgb(68, 68, 68); stroke-opacity: 1; stroke-width: 1px;"/><path class="x3tick ticks crisp" d="M0,1121v5" transform="translate(615.86,0)" style="stroke: rgb(68, 68, 68); stroke-opacity: 1; stroke-width: 1px;"/><g class="x3tick"><text text-anchor="middle" x="0" y="1140.4" transform="translate(80,0)" style="font-family: 'Open Sans', verdana, arial, sans-serif; font-size: 12px; fill: rgb(36, 36, 36); fill-opacity: 1; white-space: pre;">0</text></g><g class="x3tick"><text text-anchor="middle" x="0" y="1140.4" style="font-family: 'Open Sans', verdana, arial, sans-serif; font-size: 12px; fill: rgb(36, 36, 36); fill-opacity: 1; white-space: pre;" transform="translate(187.17000000000002,0)">5</text></g><g class="x3tick"><text text-anchor="middle" x="0" y="1140.4" style="font-family: 'Open Sans', verdana, arial, sans-serif; font-size: 12px; fill: rgb(36, 36, 36); fill-opacity: 1; white-space: pre;" transform="translate(294.34000000000003,0)">10</text></g><g class="x3tick"><text text-anchor="middle" x="0" y="1140.4" style="font-family: 'Open Sans', verdana, arial, sans-serif; font-size: 12px; fill: rgb(36, 36, 36); fill-opacity: 1; white-space: pre;" transform="translate(401.52,0)">15</text></g><g class="x3tick"><text text-anchor="middle" x="0" y="1140.4" style="font-family: 'Open Sans', verdana, arial, sans-serif; font-size: 12px; fill: rgb(36, 36, 36); fill-opacity: 1; white-space: pre;" transform="translate(508.69,0)">20</text></g><g class="x3tick"><text text-anchor="middle" x="0" y="1140.4" style="font-family: 'Open Sans', verdana, arial, sans-serif; font-size: 12px; fill: rgb(36, 36, 36); fill-opacity: 1; white-space: pre;" transform="translate(615.86,0)">25</text></g></g><g class="yaxislayer-above"><path class="y3tick ticks crisp" d="M79,0h-5" transform="translate(0,1085.04)" style="stroke: rgb(68, 68, 68); stroke-opacity: 1; stroke-width: 1px;"/><path class="y3tick ticks crisp" d="M79,0h-5" transform="translate(0,1033.7)" style="stroke: rgb(68, 68, 68); stroke-opacity: 1; stroke-width: 1px;"/><path class="y3tick ticks crisp" d="M79,0h-5" transform="translate(0,982.3500000000001)" style="stroke: rgb(68, 68, 68); stroke-opacity: 1; stroke-width: 1px;"/><path class="y3tick ticks crisp" d="M79,0h-5" transform="translate(0,931)" style="stroke: rgb(68, 68, 68); stroke-opacity: 1; stroke-width: 1px;"/><path class="y3tick ticks crisp" d="M79,0h-5" transform="translate(0,879.6500000000001)" style="stroke: rgb(68, 68, 68); stroke-opacity: 1; stroke-width: 1px;"/><path class="y3tick ticks crisp" d="M79,0h-5" transform="translate(0,828.3000000000001)" style="stroke: rgb(68, 68, 68); stroke-opacity: 1; stroke-width: 1px;"/><path class="y3tick ticks crisp" d="M79,0h-5" transform="translate(0,776.96)" style="stroke: rgb(68, 68, 68); stroke-opacity: 1; stroke-width: 1px;"/><path class="y3tick ticks crisp" d="M79,0h-5" transform="translate(0,725.6100000000001)" style="stroke: rgb(68, 68, 68); stroke-opacity: 1; stroke-width: 1px;"/><path class="y3tick ticks crisp" d="M79,0h-5" transform="translate(0,674.2600000000001)" style="stroke: rgb(68, 68, 68); stroke-opacity: 1; stroke-width: 1px;"/><g class="y3tick"><text text-anchor="end" x="71.6" y="4.199999999999999" transform="translate(0,1085.04)" style="font-family: 'Open Sans', verdana, arial, sans-serif; font-size: 12px; fill: rgb(36, 36, 36); fill-opacity: 1; white-space: pre;">0.2</text></g><g class="y3tick"><text text-anchor="end" x="71.6" y="4.199999999999999" style="font-family: 'Open Sans', verdana, arial, sans-serif; font-size: 12px; fill: rgb(36, 36, 36); fill-opacity: 1; white-space: pre;" transform="translate(0,1033.7)">0.3</text></g><g class="y3tick"><text text-anchor="end" x="71.6" y="4.199999999999999" style="font-family: 'Open Sans', verdana, arial, sans-serif; font-size: 12px; fill: rgb(36, 36, 36); fill-opacity: 1; white-space: pre;" transform="translate(0,982.3500000000001)">0.4</text></g><g class="y3tick"><text text-anchor="end" x="71.6" y="4.199999999999999" style="font-family: 'Open Sans', verdana, arial, sans-serif; font-size: 12px; fill: rgb(36, 36, 36); fill-opacity: 1; white-space: pre;" transform="translate(0,931)">0.5</text></g><g class="y3tick"><text text-anchor="end" x="71.6" y="4.199999999999999" style="font-family: 'Open Sans', verdana, arial, sans-serif; font-size: 12px; fill: rgb(36, 36, 36); fill-opacity: 1; white-space: pre;" transform="translate(0,879.6500000000001)">0.6</text></g><g class="y3tick"><text text-anchor="end" x="71.6" y="4.199999999999999" style="font-family: 'Open Sans', verdana, arial, sans-serif; font-size: 12px; fill: rgb(36, 36, 36); fill-opacity: 1; white-space: pre;" transform="translate(0,828.3000000000001)">0.7</text></g><g class="y3tick"><text text-anchor="end" x="71.6" y="4.199999999999999" style="font-family: 'Open Sans', verdana, arial, sans-serif; font-size: 12px; fill: rgb(36, 36, 36); fill-opacity: 1; white-space: pre;" transform="translate(0,776.96)">0.8</text></g><g class="y3tick"><text text-anchor="end" x="71.6" y="4.199999999999999" style="font-family: 'Open Sans', verdana, arial, sans-serif; font-size: 12px; fill: rgb(36, 36, 36); fill-opacity: 1; white-space: pre;" transform="translate(0,725.6100000000001)">0.9</text></g><g class="y3tick"><text text-anchor="end" x="71.6" y="4.199999999999999" style="font-family: 'Open Sans', verdana, arial, sans-serif; font-size: 12px; fill: rgb(36, 36, 36); fill-opacity: 1; white-space: pre;" transform="translate(0,674.2600000000001)">1</text></g></g><g class="overaxes-above"/></g><g class="subplot x4y4"><g class="layer-subplot"><g class="shapelayer"/><g class="imagelayer"/></g><g class="minor-gridlayer"><g class="x4"/><g class="y4"/></g><g class="gridlayer"><g class="x4"/><g class="y4"/></g><g class="zerolinelayer"/><g class="layer-between"><g class="shapelayer"/><g class="imagelayer"/></g><path class="xlines-below"/><path class="ylines-below"/><g class="overlines-below"/><g class="xaxislayer-below"/><g class="yaxislayer-below"/><g class="overaxes-below"/><g class="overplot"><g class="x4y4" transform="translate(753.4,650.8000000000001)" clip-path="url(#clip70a5f9x4y4plot)"><g class="scatterlayer mlayer"><g class="trace scatter trace1e0d2e" style="stroke-miterlimit: 2; opacity: 1;"><g class="fills"/><g class="errorbars"/><g class="lines"><path class="js-line" d="M0,156.1L21.43,365.84L42.87,385.55L64.3,403.06L85.74,414.75L107.17,417.17L128.61,422.06L150.04,422.92L171.48,427.08L192.91,432.17L214.34,429.64L235.78,436.22L257.21,435.62L278.65,437.33L300.08,435.12L321.52,439.02L342.95,442L364.39,440.28L385.82,440.18L407.26,433.84L428.69,441.19L450.12,441.49L471.56,443.41L492.99,439.96L514.43,441.68L535.86,444.8L557.3,445.71L621.6,445.74" style="vector-effect: none; fill: none; stroke: rgb(99, 110, 250); stroke-opacity: 1; stroke-width: 2px; opacity: 1;"/></g><g class="points"/><g class="text"/></g><g class="trace scatter trace8778fa" style="stroke-miterlimit: 2; opacity: 1;"><g class="fills"/><g class="errorbars"/><g class="lines"><path class="js-line" d="M0,201.08L21.43,318.79L42.87,356.22L64.3,369.64L85.74,381.72L128.61,402.62L150.04,406.21L171.48,407.11L192.91,420.16L214.34,423.25L235.78,425.51L278.65,428.89L300.08,431.76L321.52,436.3L342.95,435.73L364.39,424.24L385.82,437.4L428.69,441.03L450.12,440.86L471.56,434.94L492.99,437.78L514.43,444.16L535.86,443.82L557.3,440.66L578.73,439.75L600.17,441.79L621.6,440.26" style="vector-effect: none; fill: none; stroke: rgb(239, 85, 59); stroke-opacity: 1; stroke-width: 2px; opacity: 1;"/></g><g class="points"/><g class="text"/></g><g class="trace scatter trace956432" style="stroke-miterlimit: 2; opacity: 1;"><g class="fills"/><g class="errorbars"/><g class="lines"><path class="js-line" d="M0,191.25L21.43,309.96L42.87,343.35L64.3,363.64L85.74,376.7L107.17,392.89L128.61,404.53L150.04,410.67L171.48,414.43L192.91,420.66L214.34,420.3L235.78,428.46L257.21,430.54L278.65,430.23L300.08,432.53L321.52,437.87L342.95,437.87L364.39,435.74L385.82,437.98L407.26,437.7L428.69,441.81L450.12,438.86L471.56,438.28L492.99,441.79L514.43,438.86L535.86,443.11L557.3,442.22L578.73,437.39L600.17,442.03L621.6,438.05" style="vector-effect: none; fill: none; stroke: rgb(0, 204, 150); stroke-opacity: 1; stroke-width: 2px; opacity: 1;"/></g><g class="points"/><g class="text"/></g><g class="trace scatter tracec10d92" style="stroke-miterlimit: 2; opacity: 1;"><g class="fills"/><g class="errorbars"/><g class="lines"><path class="js-line" d="M0,23.46L21.43,33.13L42.87,151.93L64.3,246.16L85.74,262.83L107.17,284.24L128.61,288.67L150.04,308.98L171.48,330.81L192.91,333.16L214.34,339.51L235.78,331.21L257.21,329.03L300.08,341.67L321.52,356.29L342.95,354.03L364.39,367.74L385.82,376.78L407.26,377.12L428.69,383.33L450.12,388.19L471.56,386.62L492.99,389.13L514.43,392.16L535.86,397.06L557.3,400.28L578.73,398.31L600.17,402.35L621.6,403.83" style="vector-effect: none; fill: none; stroke: rgb(171, 99, 250); stroke-opacity: 1; stroke-width: 2px; opacity: 1;"/></g><g class="points"/><g class="text"/></g></g></g></g><g class="zerolinelayer-above"/><path class="xlines-above crisp" d="M752.4,1120.5H1375" style="fill: none; stroke-width: 1px; stroke: rgb(36, 36, 36); stroke-opacity: 1;"/><path class="ylines-above crisp" d="M752.9,650.8000000000001V1120" style="fill: none; stroke-width: 1px; stroke: rgb(36, 36, 36); stroke-opacity: 1;"/><g class="overlines-above"/><g class="xaxislayer-above"><path class="x4tick ticks crisp" d="M0,1121v5" transform="translate(753.4,0)" style="stroke: rgb(68, 68, 68); stroke-opacity: 1; stroke-width: 1px;"/><path class="x4tick ticks crisp" d="M0,1121v5" transform="translate(860.5699999999999,0)" style="stroke: rgb(68, 68, 68); stroke-opacity: 1; stroke-width: 1px;"/><path class="x4tick ticks crisp" d="M0,1121v5" transform="translate(967.74,0)" style="stroke: rgb(68, 68, 68); stroke-opacity: 1; stroke-width: 1px;"/><path class="x4tick ticks crisp" d="M0,1121v5" transform="translate(1074.92,0)" style="stroke: rgb(68, 68, 68); stroke-opacity: 1; stroke-width: 1px;"/><path class="x4tick ticks crisp" d="M0,1121v5" transform="translate(1182.09,0)" style="stroke: rgb(68, 68, 68); stroke-opacity: 1; stroke-width: 1px;"/><path class="x4tick ticks crisp" d="M0,1121v5" transform="translate(1289.26,0)" style="stroke: rgb(68, 68, 68); stroke-opacity: 1; stroke-width: 1px;"/><g class="x4tick"><text text-anchor="middle" x="0" y="1140.4" transform="translate(753.4,0)" style="font-family: 'Open Sans', verdana, arial, sans-serif; font-size: 12px; fill: rgb(36, 36, 36); fill-opacity: 1; white-space: pre;">0</text></g><g class="x4tick"><text text-anchor="middle" x="0" y="1140.4" style="font-family: 'Open Sans', verdana, arial, sans-serif; font-size: 12px; fill: rgb(36, 36, 36); fill-opacity: 1; white-space: pre;" transform="translate(860.5699999999999,0)">5</text></g><g class="x4tick"><text text-anchor="middle" x="0" y="1140.4" style="font-family: 'Open Sans', verdana, arial, sans-serif; font-size: 12px; fill: rgb(36, 36, 36); fill-opacity: 1; white-space: pre;" transform="translate(967.74,0)">10</text></g><g class="x4tick"><text text-anchor="middle" x="0" y="1140.4" style="font-family: 'Open Sans', verdana, arial, sans-serif; font-size: 12px; fill: rgb(36, 36, 36); fill-opacity: 1; white-space: pre;" transform="translate(1074.92,0)">15</text></g><g class="x4tick"><text text-anchor="middle" x="0" y="1140.4" style="font-family: 'Open Sans', verdana, arial, sans-serif; font-size: 12px; fill: rgb(36, 36, 36); fill-opacity: 1; white-space: pre;" transform="translate(1182.09,0)">20</text></g><g class="x4tick"><text text-anchor="middle" x="0" y="1140.4" style="font-family: 'Open Sans', verdana, arial, sans-serif; font-size: 12px; fill: rgb(36, 36, 36); fill-opacity: 1; white-space: pre;" transform="translate(1289.26,0)">25</text></g></g><g class="yaxislayer-above"><path class="y4tick ticks crisp" d="M752.4,0h-5" transform="translate(0,1096.5500000000002)" style="stroke: rgb(68, 68, 68); stroke-opacity: 1; stroke-width: 1px;"/><path class="y4tick ticks crisp" d="M752.4,0h-5" transform="translate(0,992.8900000000001)" style="stroke: rgb(68, 68, 68); stroke-opacity: 1; stroke-width: 1px;"/><path class="y4tick ticks crisp" d="M752.4,0h-5" transform="translate(0,889.23)" style="stroke: rgb(68, 68, 68); stroke-opacity: 1; stroke-width: 1px;"/><path class="y4tick ticks crisp" d="M752.4,0h-5" transform="translate(0,785.57)" style="stroke: rgb(68, 68, 68); stroke-opacity: 1; stroke-width: 1px;"/><path class="y4tick ticks crisp" d="M752.4,0h-5" transform="translate(0,681.9100000000001)" style="stroke: rgb(68, 68, 68); stroke-opacity: 1; stroke-width: 1px;"/><g class="y4tick"><text text-anchor="end" x="745" y="4.199999999999999" transform="translate(0,1096.5500000000002)" style="font-family: 'Open Sans', verdana, arial, sans-serif; font-size: 12px; fill: rgb(36, 36, 36); fill-opacity: 1; white-space: pre;">0</text></g><g class="y4tick"><text text-anchor="end" x="745" y="4.199999999999999" style="font-family: 'Open Sans', verdana, arial, sans-serif; font-size: 12px; fill: rgb(36, 36, 36); fill-opacity: 1; white-space: pre;" transform="translate(0,992.8900000000001)">0.5</text></g><g class="y4tick"><text text-anchor="end" x="745" y="4.199999999999999" style="font-family: 'Open Sans', verdana, arial, sans-serif; font-size: 12px; fill: rgb(36, 36, 36); fill-opacity: 1; white-space: pre;" transform="translate(0,889.23)">1</text></g><g class="y4tick"><text text-anchor="end" x="745" y="4.199999999999999" style="font-family: 'Open Sans', verdana, arial, sans-serif; font-size: 12px; fill: rgb(36, 36, 36); fill-opacity: 1; white-space: pre;" transform="translate(0,785.57)">1.5</text></g><g class="y4tick"><text text-anchor="end" x="745" y="4.199999999999999" style="font-family: 'Open Sans', verdana, arial, sans-serif; font-size: 12px; fill: rgb(36, 36, 36); fill-opacity: 1; white-space: pre;" transform="translate(0,681.9100000000001)">2</text></g></g><g class="overaxes-above"/></g></g><g class="polarlayer"/><g class="smithlayer"/><g class="ternarylayer"/><g class="geolayer"/><g class="funnelarealayer"/><g class="pielayer"/><g class="iciclelayer"/><g class="treemaplayer"/><g class="sunburstlayer"/><g class="glimages"/><defs id="topdefs-70a5f9"><g class="clips"/><clipPath id="legend70a5f9"><rect width="87" height="116" x="0" y="0"/></clipPath></defs><g class="layer-above"><g class="imagelayer"/><g class="shapelayer"/></g><g class="infolayer"><g class="legend" pointer-events="all" transform="translate(1400.9,100)"><rect class="bg" shape-rendering="crispEdges" style="stroke: rgb(68, 68, 68); stroke-opacity: 1; fill: rgb(255, 255, 255); fill-opacity: 1; stroke-width: 0px;" width="87" height="116" x="0" y="0"/><g class="scrollbox" transform="" clip-path="url(#legend70a5f9)"><g class="groups" transform=""><g class="traces" transform="translate(0,14.5)" style="opacity: 1;"><text class="legendtext" text-anchor="start" x="40" y="4.680000000000001" style="font-family: 'Open Sans', verdana, arial, sans-serif; font-size: 12px; fill: rgb(36, 36, 36); fill-opacity: 1; white-space: pre;">cnn-2</text><g class="layers" style="opacity: 1;"><g class="legendfill"/><g class="legendlines"><path class="js-line" d="M5,0h30" style="fill: none; stroke: rgb(99, 110, 250); stroke-opacity: 1; stroke-width: 2px;"/></g><g class="legendsymbols"><g class="legendpoints"/></g></g><rect class="legendtoggle" x="0" y="-9.5" width="81.421875" height="19" style="fill: rgb(0, 0, 0); fill-opacity: 0;"/></g></g><g class="groups" transform="translate(0,10)"><g class="traces" transform="translate(0,33.5)" style="opacity: 1;"><text class="legendtext" text-anchor="start" x="40" y="4.680000000000001" style="font-family: 'Open Sans', verdana, arial, sans-serif; font-size: 12px; fill: rgb(36, 36, 36); fill-opacity: 1; white-space: pre;">cnn-8</text><g class="layers" style="opacity: 1;"><g class="legendfill"/><g class="legendlines"><path class="js-line" d="M5,0h30" style="fill: none; stroke: rgb(239, 85, 59); stroke-opacity: 1; stroke-width: 2px;"/></g><g class="legendsymbols"><g class="legendpoints"/></g></g><rect class="legendtoggle" x="0" y="-9.5" width="81.421875" height="19" style="fill: rgb(0, 0, 0); fill-opacity: 0;"/></g></g><g class="groups" transform="translate(0,20)"><g class="traces" transform="translate(0,52.5)" style="opacity: 1;"><text class="legendtext" text-anchor="start" x="40" y="4.680000000000001" style="font-family: 'Open Sans', verdana, arial, sans-serif; font-size: 12px; fill: rgb(36, 36, 36); fill-opacity: 1; white-space: pre;">cnn-16</text><g class="layers" style="opacity: 1;"><g class="legendfill"/><g class="legendlines"><path class="js-line" d="M5,0h30" style="fill: none; stroke: rgb(0, 204, 150); stroke-opacity: 1; stroke-width: 2px;"/></g><g class="legendsymbols"><g class="legendpoints"/></g></g><rect class="legendtoggle" x="0" y="-9.5" width="81.421875" height="19" style="fill: rgb(0, 0, 0); fill-opacity: 0;"/></g></g><g class="groups" transform="translate(0,30)"><g class="traces" transform="translate(0,71.5)" style="opacity: 1;"><text class="legendtext" text-anchor="start" x="40" y="4.680000000000001" style="font-family: 'Open Sans', verdana, arial, sans-serif; font-size: 12px; fill: rgb(36, 36, 36); fill-opacity: 1; white-space: pre;">cnn-32</text><g class="layers" style="opacity: 1;"><g class="legendfill"/><g class="legendlines"><path class="js-line" d="M5,0h30" style="fill: none; stroke: rgb(171, 99, 250); stroke-opacity: 1; stroke-width: 2px;"/></g><g class="legendsymbols"><g class="legendpoints"/></g></g><rect class="legendtoggle" x="0" y="-9.5" width="81.421875" height="19" style="fill: rgb(0, 0, 0); fill-opacity: 0;"/></g></g></g><rect class="scrollbar" rx="20" ry="3" width="0" height="0" style="fill: rgb(128, 139, 164); fill-opacity: 1;" x="0" y="0"/></g><g class="g-gtitle"><text class="gtitle" x="750" y="50" text-anchor="middle" dy="0em" style="opacity: 1; font-family: 'Open Sans', verdana, arial, sans-serif; font-size: 17px; fill: rgb(36, 36, 36); fill-opacity: 1; white-space: pre;">CNN Performance Comparison on BloodMNIST (128x128)</text></g><g class="g-xtitle"><text class="xtitle" x="390.8" y="616.899609375" text-anchor="middle" style="opacity: 1; font-family: 'Open Sans', verdana, arial, sans-serif; font-size: 14px; fill: rgb(36, 36, 36); fill-opacity: 1; white-space: pre;">Epoch</text></g><g class="g-x2title"><text class="x2title" x="1064.2" y="616.899609375" text-anchor="middle" style="opacity: 1; font-family: 'Open Sans', verdana, arial, sans-serif; font-size: 14px; fill: rgb(36, 36, 36); fill-opacity: 1; white-space: pre;">Epoch</text></g><g class="g-x3title"><text class="x3title" x="390.8" y="1167.700390625" text-anchor="middle" style="opacity: 1; font-family: 'Open Sans', verdana, arial, sans-serif; font-size: 14px; fill: rgb(36, 36, 36); fill-opacity: 1; white-space: pre;">Epoch</text></g><g class="g-x4title"><text class="x4title" x="1064.2" y="1167.700390625" text-anchor="middle" style="opacity: 1; font-family: 'Open Sans', verdana, arial, sans-serif; font-size: 14px; fill: rgb(36, 36, 36); fill-opacity: 1; white-space: pre;">Epoch</text></g><g class="g-ytitle"><text class="ytitle" transform="rotate(-90,33.105859375,334.6)" x="33.105859375" y="334.6" text-anchor="middle" style="opacity: 1; font-family: 'Open Sans', verdana, arial, sans-serif; font-size: 14px; fill: rgb(36, 36, 36); fill-opacity: 1; white-space: pre;">Accuracy</text></g><g class="g-y2title"><text class="y2title" transform="rotate(-90,706.50625,334.6)" x="706.50625" y="334.6" text-anchor="middle" style="opacity: 1; font-family: 'Open Sans', verdana, arial, sans-serif; font-size: 14px; fill: rgb(36, 36, 36); fill-opacity: 1; white-space: pre;">Loss</text></g><g class="g-y3title"><text class="y3title" transform="rotate(-90,33.105859375,885.4000000000001)" x="33.105859375" y="885.4000000000001" text-anchor="middle" style="opacity: 1; font-family: 'Open Sans', verdana, arial, sans-serif; font-size: 14px; fill: rgb(36, 36, 36); fill-opacity: 1; white-space: pre;">Accuracy</text></g><g class="g-y4title"><text class="y4title" transform="rotate(-90,706.50625,885.4000000000001)" x="706.50625" y="885.4000000000001" text-anchor="middle" style="opacity: 1; font-family: 'Open Sans', verdana, arial, sans-serif; font-size: 14px; fill: rgb(36, 36, 36); fill-opacity: 1; white-space: pre;">Loss</text></g><g class="annotation" data-index="0" style="opacity: 1;"><g class="annotation-text-g" transform="rotate(0,390.8,88.5)"><g class="cursor-pointer" transform="translate(272,77)"><rect class="bg" x="0.5" y="0.5" width="237" height="22" style="stroke-width: 1px; stroke: rgb(0, 0, 0); stroke-opacity: 0; fill: rgb(0, 0, 0); fill-opacity: 0;"/><text class="annotation-text" text-anchor="middle" x="119.0546875" y="17" style="font-family: 'Open Sans', verdana, arial, sans-serif; font-size: 16px; fill: rgb(36, 36, 36); fill-opacity: 1; white-space: pre;">Validation Accuracy vs Epoch</text></g></g></g><g class="annotation" data-index="1" style="opacity: 1;"><g class="annotation-text-g" transform="rotate(0,1064.2,88.5)"><g class="cursor-pointer" transform="translate(964,77)"><rect class="bg" x="0.5" y="0.5" width="199" height="22" style="stroke-width: 1px; stroke: rgb(0, 0, 0); stroke-opacity: 0; fill: rgb(0, 0, 0); fill-opacity: 0;"/><text class="annotation-text" text-anchor="middle" x="100.078125" y="17" style="font-family: 'Open Sans', verdana, arial, sans-serif; font-size: 16px; fill: rgb(36, 36, 36); fill-opacity: 1; white-space: pre;">Validation Loss vs Epoch</text></g></g></g><g class="annotation" data-index="2" style="opacity: 1;"><g class="annotation-text-g" transform="rotate(0,390.8,639.3000000000001)"><g class="cursor-pointer" transform="translate(291,628)"><rect class="bg" x="0.5" y="0.5" width="198" height="22" style="stroke-width: 1px; stroke: rgb(0, 0, 0); stroke-opacity: 0; fill: rgb(0, 0, 0); fill-opacity: 0;"/><text class="annotation-text" text-anchor="middle" x="99.75" y="17" style="font-family: 'Open Sans', verdana, arial, sans-serif; font-size: 16px; fill: rgb(36, 36, 36); fill-opacity: 1; white-space: pre;">Train Accuracy vs Epoch</text></g></g></g><g class="annotation" data-index="3" style="opacity: 1;"><g class="annotation-text-g" transform="rotate(0,1064.2,639.3000000000001)"><g class="cursor-pointer" transform="translate(984,628)"><rect class="bg" x="0.5" y="0.5" width="160" height="22" style="stroke-width: 1px; stroke: rgb(0, 0, 0); stroke-opacity: 0; fill: rgb(0, 0, 0); fill-opacity: 0;"/><text class="annotation-text" text-anchor="middle" x="80.7734375" y="17" style="font-family: 'Open Sans', verdana, arial, sans-serif; font-size: 16px; fill: rgb(36, 36, 36); fill-opacity: 1; white-space: pre;">Train Loss vs Epoch</text></g></g></g></g></svg>