<svg class="main-svg" xmlns="http://www.w3.org/2000/svg" xmlns:xlink="http://www.w3.org/1999/xlink" width="1500" height="1200" style="" viewBox="0 0 1500 1200"><rect x="0" y="0" width="1500" height="1200" style="fill: rgb(255, 255, 255); fill-opacity: 1;"/><defs id="defs-907230"><g class="clips"><clipPath id="clip907230xyplot" class="plotclip"><rect width="629.28" height="501.4"/></clipPath><clipPath id="clip907230x2y2plot" class="plotclip"><rect width="629.28" height="501.4"/></clipPath><clipPath id="clip907230x3y3plot" class="plotclip"><rect width="629.28" height="501.40000000000003"/></clipPath><clipPath id="clip907230x4y4plot" class="plotclip"><rect width="629.28" height="501.40000000000003"/></clipPath><clipPath class="axesclip" id="clip907230x"><rect x="64" y="0" width="629.28" height="1200"/></clipPath><clipPath class="axesclip" id="clip907230y"><rect x="0" y="50" width="1500" height="501.4"/></clipPath><clipPath class="axesclip" id="clip907230xy"><rect x="64" y="50" width="629.28" height="501.4"/></clipPath><clipPath class="axesclip" id="clip907230y2"><rect x="0" y="50" width="1500" height="501.4"/></clipPath><clipPath class="axesclip" id="clip907230xy2"><rect x="64" y="50" width="629.28" height="501.4"/></clipPath><clipPath class="axesclip" id="clip907230y3"><rect x="0" y="638.6" width="1500" height="501.40000000000003"/></clipPath><clipPath class="axesclip" id="clip907230xy3"><rect x="64" y="638.6" width="629.28" height="501.40000000000003"/></clipPath><clipPath class="axesclip" id="clip907230y4"><rect x="0" y="638.6" width="1500" height="501.40000000000003"/></clipPath><clipPath class="axesclip" id="clip907230xy4"><rect x="64" y="638.6" width="629.28" height="501.40000000000003"/></clipPath><clipPath class="axesclip" id="clip907230x2"><rect x="745.72" y="0" width="629.28" height="1200"/></clipPath><clipPath class="axesclip" id="clip907230x2y"><rect x="745.72" y="50" width="629.28" height="501.4"/></clipPath><clipPath class="axesclip" id="clip907230x2y2"><rect x="745.72" y="50" width="629.28" height="501.4"/></clipPath><clipPath class="axesclip" id="clip907230x2y3"><rect x="745.72" y="638.6" width="629.28" height="501.40000000000003"/></clipPath><clipPath class="axesclip" id="clip907230x2y4"><rect x="745.72" y="638.6" width="629.28" height="501.40000000000003"/></clipPath><clipPath class="axesclip" id="clip907230x3"><rect x="64" y="0" width="629.28" height="1200"/></clipPath><clipPath class="axesclip" id="clip907230x3y"><rect x="64" y="50" width="629.28" height="501.4"/></clipPath><clipPath class="axesclip" id="clip907230x3y2"><rect x="64" y="50" width="629.28" height="501.4"/></clipPath><clipPath class="axesclip" id="clip907230x3y3"><rect x="64" y="638.6" width="629.28" height="501.40000000000003"/></clipPath><clipPath class="axesclip" id="clip907230x3y4"><rect x="64" y="638.6" width="629.28" height="501.40000000000003"/></clipPath><clipPath class="axesclip" id="clip907230x4"><rect x="745.72" y="0" width="629.28" height="1200"/></clipPath><clipPath class="axesclip" id="clip907230x4y"><rect x="745.72" y="50" width="629.28" height="501.4"/></clipPath><clipPath class="axesclip" id="clip907230x4y2"><rect x="745.72" y="50" width="629.28" height="501.4"/></clipPath><clipPath class="axesclip" id="clip907230x4y3"><rect x="745.72" y="638.6" width="629.28" height="501.40000000000003"/></clipPath><clipPath class="axesclip" id="clip907230x4y4"><rect x="745.72" y="638.6" width="629.28" height="501.40000000000003"/></clipPath></g><g class="gradients"/><g class="patterns"/></defs><g class="bglayer"/><g class="layer-below"><g class="imagelayer"/><g class="shapelayer"/></g><g class="cartesianlayer"><g class="subplot xy"><g class="layer-subplot"><g class="shapelayer"/><g class="imagelayer"/></g><g class="minor-gridlayer"><g class="x"/><g class="y"/></g><g class="gridlayer"><g class="x"/><g class="y"/></g><g class="zerolinelayer"/><g class="layer-between"><g class="shapelayer"/><g class="imagelayer"/></g><path class="xlines-below"/><path class="ylines-below"/><g class="overlines-below"/><g class="xaxislayer-below"/><g class="yaxislayer-below"/><g class="overaxes-below"/><g class="overplot"><g class="xy" transform="translate(64,50)" clip-path="url(#clip907230xyplot)"><g class="scatterlayer mlayer"><g class="trace scatter trace07cd49" style="stroke-miterlimit: 2; opacity: 1;"><g class="fills"/><g class="errorbars"/><g class="lines"><path class="js-line" d="M0,196.06L21.7,96.43L43.4,82.71L65.1,108.43L86.8,73.46L108.5,73.09L130.2,51.38L151.9,59.87L173.59,54L195.29,53.36L216.99,57.74L238.69,52.4L260.39,54.59L282.09,52.82L303.79,48.92L325.49,66.14L347.19,51.05L368.89,56.29L390.59,58L412.29,96.08L433.99,56.73L455.69,52.4L477.38,63.62L499.08,61.76L520.78,56.34L542.48,48.8L564.18,56.57L585.88,60.31L607.58,55.21L629.28,57.74" style="vector-effect: none; fill: none; stroke: rgb(99, 110, 250); stroke-opacity: 1; stroke-width: 2px; opacity: 1;"/></g><g class="points"/><g class="text"/></g><g class="trace scatter trace91545e" style="stroke-miterlimit: 2; opacity: 1;"><g class="fills"/><g class="errorbars"/><g class="lines"><path class="js-line" d="M0,476.33L43.4,165.66L65.1,113.85L86.8,72L108.5,55.49L130.2,46.88L151.9,40.34L173.59,44.42L195.29,35.65L238.69,32.97L260.39,34.26L282.09,29.27L303.79,36.61L325.49,35.49L347.19,27.8L368.89,33.12L390.59,29.87L412.29,33.81L433.99,32.28L455.69,28.43L477.38,27.64L499.08,29.19L520.78,25.55L542.48,26.35L564.18,28.35L585.88,36.71L607.58,28.44L629.28,25.07" style="vector-effect: none; fill: none; stroke: rgb(239, 85, 59); stroke-opacity: 1; stroke-width: 2px; opacity: 1;"/></g><g class="points"/><g class="text"/></g><g class="trace scatter trace73ba56" style="stroke-miterlimit: 2; opacity: 1;"><g class="fills"/><g class="errorbars"/><g class="lines"><path class="js-line" d="M0,220.35L21.7,164.97L43.4,170.6L65.1,100.77L86.8,103.44L108.5,66.94L130.2,62.12L151.9,68.8L173.59,61.97L195.29,47.16L216.99,53.84L238.69,37.38L260.39,44.76L282.09,51.19L303.79,33.48L325.49,37.58L347.19,35.34L368.89,51.38L390.59,32.73L412.29,31.81L433.99,39.07L455.69,30.9L477.38,33.36L499.08,40.15L520.78,39.08L542.48,34.97L564.18,29.03L585.88,30.52L607.58,27.58L629.28,32.56" style="vector-effect: none; fill: none; stroke: rgb(0, 204, 150); stroke-opacity: 1; stroke-width: 2px; opacity: 1;"/></g><g class="points"/><g class="text"/></g><g class="trace scatter trace72fe79" style="stroke-miterlimit: 2; opacity: 1;"><g class="fills"/><g class="errorbars"/><g class="lines"><path class="js-line" d="M0,298.73L21.7,203.3L43.4,198.3L65.1,166.28L86.8,153.4L108.5,147.45L130.2,128.47L151.9,122.37L173.59,118.29L195.29,91.26L216.99,86.4L238.69,73.5L260.39,76.93L282.09,64.74L303.79,67.67L325.49,53.88L347.19,67.73L368.89,49.43L390.59,60.25L412.29,45.87L433.99,63.85L455.69,63.08L477.38,46.73L499.08,38.87L520.78,41.81L542.48,44.91L564.18,41.7L585.88,39.62L607.58,49.61L629.28,40.69" style="vector-effect: none; fill: none; stroke: rgb(171, 99, 250); stroke-opacity: 1; stroke-width: 2px; opacity: 1;"/></g><g class="points"/><g class="text"/></g></g></g></g><g class="zerolinelayer-above"/><path class="xlines-above crisp" d="M63,551.9H693.28" style="fill: none; stroke-width: 1px; stroke: rgb(36, 36, 36); stroke-opacity: 1;"/><path class="ylines-above crisp" d="M63.5,50V551.4" style="fill: none; stroke-width: 1px; stroke: rgb(36, 36, 36); stroke-opacity: 1;"/><g class="overlines-above"/><g class="xaxislayer-above"><path class="xtick ticks crisp" d="M0,552.4v5" transform="translate(64,0)" style="stroke: rgb(68, 68, 68); stroke-opacity: 1; stroke-width: 1px;"/><path class="xtick ticks crisp" d="M0,552.4v5" transform="translate(172.5,0)" style="stroke: rgb(68, 68, 68); stroke-opacity: 1; stroke-width: 1px;"/><path class="xtick ticks crisp" d="M0,552.4v5" transform="translate(280.99,0)" style="stroke: rgb(68, 68, 68); stroke-opacity: 1; stroke-width: 1px;"/><path class="xtick ticks crisp" d="M0,552.4v5" transform="translate(389.49,0)" style="stroke: rgb(68, 68, 68); stroke-opacity: 1; stroke-width: 1px;"/><path class="xtick ticks crisp" d="M0,552.4v5" transform="translate(497.99,0)" style="stroke: rgb(68, 68, 68); stroke-opacity: 1; stroke-width: 1px;"/><path class="xtick ticks crisp" d="M0,552.4v5" transform="translate(606.48,0)" style="stroke: rgb(68, 68, 68); stroke-opacity: 1; stroke-width: 1px;"/><g class="xtick"><text text-anchor="middle" x="0" y="571.8" transform="translate(64,0)" style="font-family: 'Open Sans', verdana, arial, sans-serif; font-size: 12px; fill: rgb(36, 36, 36); fill-opacity: 1; white-space: pre;">0</text></g><g class="xtick"><text text-anchor="middle" x="0" y="571.8" style="font-family: 'Open Sans', verdana, arial, sans-serif; font-size: 12px; fill: rgb(36, 36, 36); fill-opacity: 1; white-space: pre;" transform="translate(172.5,0)">5</text></g><g class="xtick"><text text-anchor="middle" x="0" y="571.8" style="font-family: 'Open Sans', verdana, arial, sans-serif; font-size: 12px; fill: rgb(36, 36, 36); fill-opacity: 1; white-space: pre;" transform="translate(280.99,0)">10</text></g><g class="xtick"><text text-anchor="middle" x="0" y="571.8" style="font-family: 'Open Sans', verdana, arial, sans-serif; font-size: 12px; fill: rgb(36, 36, 36); fill-opacity: 1; white-space: pre;" transform="translate(389.49,0)">15</text></g><g class="xtick"><text text-anchor="middle" x="0" y="571.8" style="font-family: 'Open Sans', verdana, arial, sans-serif; font-size: 12px; fill: rgb(36, 36, 36); fill-opacity: 1; white-space: pre;" transform="translate(497.99,0)">20</text></g><g class="xtick"><text text-anchor="middle" x="0" y="571.8" style="font-family: 'Open Sans', verdana, arial, sans-serif; font-size: 12px; fill: rgb(36, 36, 36); fill-opacity: 1; white-space: pre;" transform="translate(606.48,0)">25</text></g></g><g class="yaxislayer-above"><path class="ytick ticks crisp" d="M63,0h-5" transform="translate(0,548.78)" style="stroke: rgb(68, 68, 68); stroke-opacity: 1; stroke-width: 1px;"/><path class="ytick ticks crisp" d="M63,0h-5" transform="translate(0,494.02)" style="stroke: rgb(68, 68, 68); stroke-opacity: 1; stroke-width: 1px;"/><path class="ytick ticks crisp" d="M63,0h-5" transform="translate(0,439.26)" style="stroke: rgb(68, 68, 68); stroke-opacity: 1; stroke-width: 1px;"/><path class="ytick ticks crisp" d="M63,0h-5" transform="translate(0,384.5)" style="stroke: rgb(68, 68, 68); stroke-opacity: 1; stroke-width: 1px;"/><path class="ytick ticks crisp" d="M63,0h-5" transform="translate(0,329.74)" style="stroke: rgb(68, 68, 68); stroke-opacity: 1; stroke-width: 1px;"/><path class="ytick ticks crisp" d="M63,0h-5" transform="translate(0,274.98)" style="stroke: rgb(68, 68, 68); stroke-opacity: 1; stroke-width: 1px;"/><path class="ytick ticks crisp" d="M63,0h-5" transform="translate(0,220.22)" style="stroke: rgb(68, 68, 68); stroke-opacity: 1; stroke-width: 1px;"/><path class="ytick ticks crisp" d="M63,0h-5" transform="translate(0,165.45999999999998)" style="stroke: rgb(68, 68, 68); stroke-opacity: 1; stroke-width: 1px;"/><path class="ytick ticks crisp" d="M63,0h-5" transform="translate(0,110.7)" style="stroke: rgb(68, 68, 68); stroke-opacity: 1; stroke-width: 1px;"/><path class="ytick ticks crisp" d="M63,0h-5" transform="translate(0,55.94)" style="stroke: rgb(68, 68, 68); stroke-opacity: 1; stroke-width: 1px;"/><g class="ytick"><text text-anchor="end" x="55.6" y="4.199999999999999" transform="translate(0,548.78)" style="font-family: 'Open Sans', verdana, arial, sans-serif; font-size: 12px; fill: rgb(36, 36, 36); fill-opacity: 1; white-space: pre;">0.1</text></g><g class="ytick"><text text-anchor="end" x="55.6" y="4.199999999999999" style="font-family: 'Open Sans', verdana, arial, sans-serif; font-size: 12px; fill: rgb(36, 36, 36); fill-opacity: 1; white-space: pre;" transform="translate(0,494.02)">0.2</text></g><g class="ytick"><text text-anchor="end" x="55.6" y="4.199999999999999" style="font-family: 'Open Sans', verdana, arial, sans-serif; font-size: 12px; fill: rgb(36, 36, 36); fill-opacity: 1; white-space: pre;" transform="translate(0,439.26)">0.3</text></g><g class="ytick"><text text-anchor="end" x="55.6" y="4.199999999999999" style="font-family: 'Open Sans', verdana, arial, sans-serif; font-size: 12px; fill: rgb(36, 36, 36); fill-opacity: 1; white-space: pre;" transform="translate(0,384.5)">0.4</text></g><g class="ytick"><text text-anchor="end" x="55.6" y="4.199999999999999" style="font-family: 'Open Sans', verdana, arial, sans-serif; font-size: 12px; fill: rgb(36, 36, 36); fill-opacity: 1; white-space: pre;" transform="translate(0,329.74)">0.5</text></g><g class="ytick"><text text-anchor="end" x="55.6" y="4.199999999999999" style="font-family: 'Open Sans', verdana, arial, sans-serif; font-size: 12px; fill: rgb(36, 36, 36); fill-opacity: 1; white-space: pre;" transform="translate(0,274.98)">0.6</text></g><g class="ytick"><text text-anchor="end" x="55.6" y="4.199999999999999" style="font-family: 'Open Sans', verdana, arial, sans-serif; font-size: 12px; fill: rgb(36, 36, 36); fill-opacity: 1; white-space: pre;" transform="translate(0,220.22)">0.7</text></g><g class="ytick"><text text-anchor="end" x="55.6" y="4.199999999999999" style="font-family: 'Open Sans', verdana, arial, sans-serif; font-size: 12px; fill: rgb(36, 36, 36); fill-opacity: 1; white-space: pre;" transform="translate(0,165.45999999999998)">0.8</text></g><g class="ytick"><text text-anchor="end" x="55.6" y="4.199999999999999" style="font-family: 'Open Sans', verdana, arial, sans-serif; font-size: 12px; fill: rgb(36, 36, 36); fill-opacity: 1; white-space: pre;" transform="translate(0,110.7)">0.9</text></g><g class="ytick"><text text-anchor="end" x="55.6" y="4.199999999999999" style="font-family: 'Open Sans', verdana, arial, sans-serif; font-size: 12px; fill: rgb(36, 36, 36); fill-opacity: 1; white-space: pre;" transform="translate(0,55.94)">1</text></g></g><g class="overaxes-above"/></g><g class="subplot x2y2"><g class="layer-subplot"><g class="shapelayer"/><g class="imagelayer"/></g><g class="minor-gridlayer"><g class="x2"/><g class="y2"/></g><g class="gridlayer"><g class="x2"/><g class="y2"/></g><g class="zerolinelayer"/><g class="layer-between"><g class="shapelayer"/><g class="imagelayer"/></g><path class="xlines-below"/><path class="ylines-below"/><g class="overlines-below"/><g class="xaxislayer-below"/><g class="yaxislayer-below"/><g class="overaxes-below"/><g class="overplot"><g class="x2y2" transform="translate(745.72,50)" clip-path="url(#clip907230x2y2plot)"><g class="scatterlayer mlayer"><g class="trace scatter traced3121a" style="stroke-miterlimit: 2; opacity: 1;"><g class="fills"/><g class="errorbars"/><g class="lines"><path class="js-line" d="M0,303.86L21.7,402.74L43.4,419L65.1,384.59L86.8,424.36L108.5,430.01L130.2,448.39L151.9,437.89L173.59,440.38L195.29,439.37L216.99,434.73L238.69,439.14L260.39,434.72L282.09,433.08L303.79,439.12L325.49,423.78L347.19,432.7L368.89,431.05L390.59,423.46L412.29,312.89L433.99,412.25L455.69,423.15L477.38,394.6L499.08,401.85L520.78,414.27L542.48,420.17L564.18,409.7L585.88,417.9L607.58,402.75L629.28,400.74" style="vector-effect: none; fill: none; stroke: rgb(99, 110, 250); stroke-opacity: 1; stroke-width: 2px; opacity: 1;"/></g><g class="points"/><g class="text"/></g><g class="trace scatter trace7071f9" style="stroke-miterlimit: 2; opacity: 1;"><g class="fills"/><g class="errorbars"/><g class="lines"><path class="js-line" d="M0,25.07L21.7,170.11L43.4,333.11L86.8,428.46L108.5,444.61L130.2,454.96L151.9,462.26L173.59,458.55L195.29,467.66L216.99,469.74L238.69,470.8L260.39,471.36L282.09,474.41L303.79,466.58L325.49,468.23L347.19,476.33L368.89,468.32L390.59,472.21L412.29,465.48L455.69,475.54L477.38,472.83L499.08,468.43L520.78,475.52L542.48,472.49L564.18,472.26L585.88,457.08L607.58,469.12L629.28,471.53" style="vector-effect: none; fill: none; stroke: rgb(239, 85, 59); stroke-opacity: 1; stroke-width: 2px; opacity: 1;"/></g><g class="points"/><g class="text"/></g><g class="trace scatter trace80e612" style="stroke-miterlimit: 2; opacity: 1;"><g class="fills"/><g class="errorbars"/><g class="lines"><path class="js-line" d="M0,276.87L21.7,330.24L43.4,314.2L65.1,399.42L86.8,393.24L108.5,435.23L130.2,439L151.9,433.44L173.59,440.78L195.29,454.49L216.99,446.93L238.69,465.35L260.39,458.05L282.09,452.01L303.79,470.19L325.49,467.1L347.19,467.51L368.89,450.7L390.59,469.58L412.29,471.9L433.99,460.03L455.69,471.14L477.38,468.62L499.08,460.26L520.78,459.78L542.48,464.85L564.18,471.25L585.88,468.05L607.58,470.05L629.28,467.14" style="vector-effect: none; fill: none; stroke: rgb(0, 204, 150); stroke-opacity: 1; stroke-width: 2px; opacity: 1;"/></g><g class="points"/><g class="text"/></g><g class="trace scatter trace704f23" style="stroke-miterlimit: 2; opacity: 1;"><g class="fills"/><g class="errorbars"/><g class="lines"><path class="js-line" d="M0,195.26L21.7,296.22L43.4,309.68L65.1,339.24L86.8,350.04L108.5,356.55L130.2,370.91L151.9,377.02L173.59,380.01L195.29,409.14L216.99,411.1L238.69,426.18L260.39,423.32L282.09,434.54L303.79,427.93L325.49,446.32L347.19,430.98L368.89,450.55L390.59,441.42L412.29,453.37L433.99,432.5L455.69,429.33L477.38,453.68L499.08,460.27L520.78,457.82L542.48,448.93L564.18,457.49L585.88,456.24L607.58,446L629.28,456.44" style="vector-effect: none; fill: none; stroke: rgb(171, 99, 250); stroke-opacity: 1; stroke-width: 2px; opacity: 1;"/></g><g class="points"/><g class="text"/></g></g></g></g><g class="zerolinelayer-above"/><path class="xlines-above crisp" d="M744.72,551.9H1375" style="fill: none; stroke-width: 1px; stroke: rgb(36, 36, 36); stroke-opacity: 1;"/><path class="ylines-above crisp" d="M745.22,50V551.4" style="fill: none; stroke-width: 1px; stroke: rgb(36, 36, 36); stroke-opacity: 1;"/><g class="overlines-above"/><g class="xaxislayer-above"><path class="x2tick ticks crisp" d="M0,552.4v5" transform="translate(745.72,0)" style="stroke: rgb(68, 68, 68); stroke-opacity: 1; stroke-width: 1px;"/><path class="x2tick ticks crisp" d="M0,552.4v5" transform="translate(854.22,0)" style="stroke: rgb(68, 68, 68); stroke-opacity: 1; stroke-width: 1px;"/><path class="x2tick ticks crisp" d="M0,552.4v5" transform="translate(962.71,0)" style="stroke: rgb(68, 68, 68); stroke-opacity: 1; stroke-width: 1px;"/><path class="x2tick ticks crisp" d="M0,552.4v5" transform="translate(1071.21,0)" style="stroke: rgb(68, 68, 68); stroke-opacity: 1; stroke-width: 1px;"/><path class="x2tick ticks crisp" d="M0,552.4v5" transform="translate(1179.71,0)" style="stroke: rgb(68, 68, 68); stroke-opacity: 1; stroke-width: 1px;"/><path class="x2tick ticks crisp" d="M0,552.4v5" transform="translate(1288.2,0)" style="stroke: rgb(68, 68, 68); stroke-opacity: 1; stroke-width: 1px;"/><g class="x2tick"><text text-anchor="middle" x="0" y="571.8" transform="translate(745.72,0)" style="font-family: 'Open Sans', verdana, arial, sans-serif; font-size: 12px; fill: rgb(36, 36, 36); fill-opacity: 1; white-space: pre;">0</text></g><g class="x2tick"><text text-anchor="middle" x="0" y="571.8" style="font-family: 'Open Sans', verdana, arial, sans-serif; font-size: 12px; fill: rgb(36, 36, 36); fill-opacity: 1; white-space: pre;" transform="translate(854.22,0)">5</text></g><g class="x2tick"><text text-anchor="middle" x="0" y="571.8" style="font-family: 'Open Sans', verdana, arial, sans-serif; font-size: 12px; fill: rgb(36, 36, 36); fill-opacity: 1; white-space: pre;" transform="translate(962.71,0)">10</text></g><g class="x2tick"><text text-anchor="middle" x="0" y="571.8" style="font-family: 'Open Sans', verdana, arial, sans-serif; font-size: 12px; fill: rgb(36, 36, 36); fill-opacity: 1; white-space: pre;" transform="translate(1071.21,0)">15</text></g><g class="x2tick"><text text-anchor="middle" x="0" y="571.8" style="font-family: 'Open Sans', verdana, arial, sans-serif; font-size: 12px; fill: rgb(36, 36, 36); fill-opacity: 1; white-space: pre;" transform="translate(1179.71,0)">20</text></g><g class="x2tick"><text text-anchor="middle" x="0" y="571.8" style="font-family: 'Open Sans', verdana, arial, sans-serif; font-size: 12px; fill: rgb(36, 36, 36); fill-opacity: 1; white-space: pre;" transform="translate(1288.2,0)">25</text></g></g><g class="yaxislayer-above"><path class="y2tick ticks crisp" d="M744.72,0h-5" transform="translate(0,444.39)" style="stroke: rgb(68, 68, 68); stroke-opacity: 1; stroke-width: 1px;"/><path class="y2tick ticks crisp" d="M744.72,0h-5" transform="translate(0,334.82)" style="stroke: rgb(68, 68, 68); stroke-opacity: 1; stroke-width: 1px;"/><path class="y2tick ticks crisp" d="M744.72,0h-5" transform="translate(0,225.25)" style="stroke: rgb(68, 68, 68); stroke-opacity: 1; stroke-width: 1px;"/><path class="y2tick ticks crisp" d="M744.72,0h-5" transform="translate(0,115.68)" style="stroke: rgb(68, 68, 68); stroke-opacity: 1; stroke-width: 1px;"/><g class="y2tick"><text text-anchor="end" x="737.32" y="4.199999999999999" transform="translate(0,444.39)" style="font-family: 'Open Sans', verdana, arial, sans-serif; font-size: 12px; fill: rgb(36, 36, 36); fill-opacity: 1; white-space: pre;">0.5</text></g><g class="y2tick"><text text-anchor="end" x="737.32" y="4.199999999999999" style="font-family: 'Open Sans', verdana, arial, sans-serif; font-size: 12px; fill: rgb(36, 36, 36); fill-opacity: 1; white-space: pre;" transform="translate(0,334.82)">1</text></g><g class="y2tick"><text text-anchor="end" x="737.32" y="4.199999999999999" style="font-family: 'Open Sans', verdana, arial, sans-serif; font-size: 12px; fill: rgb(36, 36, 36); fill-opacity: 1; white-space: pre;" transform="translate(0,225.25)">1.5</text></g><g class="y2tick"><text text-anchor="end" x="737.32" y="4.199999999999999" style="font-family: 'Open Sans', verdana, arial, sans-serif; font-size: 12px; fill: rgb(36, 36, 36); fill-opacity: 1; white-space: pre;" transform="translate(0,115.68)">2</text></g></g><g class="overaxes-above"/></g><g class="subplot x3y3"><g class="layer-subplot"><g class="shapelayer"/><g class="imagelayer"/></g><g class="minor-gridlayer"><g class="x3"/><g class="y3"/></g><g class="gridlayer"><g class="x3"/><g class="y3"/></g><g class="zerolinelayer"/><g class="layer-between"><g class="shapelayer"/><g class="imagelayer"/></g><path class="xlines-below"/><path class="ylines-below"/><g class="overlines-below"/><g class="xaxislayer-below"/><g class="yaxislayer-below"/><g class="overaxes-below"/><g class="overplot"><g class="x3y3" transform="translate(64,638.6)" clip-path="url(#clip907230x3y3plot)"><g class="scatterlayer mlayer"><g class="trace scatter trace3ef4fc" style="stroke-miterlimit: 2; opacity: 1;"><g class="fills"/><g class="errorbars"/><g class="lines"><path class="js-line" d="M0,272.99L21.7,144.76L43.4,108.73L65.1,87.4L86.8,75.31L130.2,58.38L151.9,53.01L173.59,46.65L195.29,44.64L216.99,37.46L238.69,34.48L260.39,36.62L282.09,31.9L303.79,30.61L325.49,32.27L347.19,28.8L368.89,28.15L390.59,29.14L412.29,28.79L433.99,27.3L455.69,28.76L477.38,27.34L499.08,27.67L520.78,27.93L542.48,25.9L564.18,28.09L585.88,28.63L607.58,25.07L629.28,27.68" style="vector-effect: none; fill: none; stroke: rgb(99, 110, 250); stroke-opacity: 1; stroke-width: 2px; opacity: 1;"/></g><g class="points"/><g class="text"/></g><g class="trace scatter trace95ac84" style="stroke-miterlimit: 2; opacity: 1;"><g class="fills"/><g class="errorbars"/><g class="lines"><path class="js-line" d="M0,476.33L21.7,459.85L43.4,237.09L65.1,137.05L86.8,99.26L108.5,81.91L130.2,70.74L173.59,58.56L195.29,55.2L216.99,51.48L238.69,48.59L260.39,46.92L282.09,44.12L303.79,43.74L325.49,39.81L347.19,40L368.89,37.68L390.59,37.76L412.29,34.6L433.99,36.41L455.69,35.5L477.38,32.31L499.08,31.19L542.48,29.48L564.18,29.43L607.58,28.24L629.28,28.21" style="vector-effect: none; fill: none; stroke: rgb(239, 85, 59); stroke-opacity: 1; stroke-width: 2px; opacity: 1;"/></g><g class="points"/><g class="text"/></g><g class="trace scatter tracee15c44" style="stroke-miterlimit: 2; opacity: 1;"><g class="fills"/><g class="errorbars"/><g class="lines"><path class="js-line" d="M0,356.84L21.7,218.93L43.4,153.61L65.1,126.72L86.8,108.16L108.5,95.99L130.2,85.99L151.9,79.71L173.59,74.74L195.29,64.82L216.99,63.95L238.69,58.36L260.39,59.64L282.09,53.08L303.79,52.91L325.49,48.71L347.19,47.25L368.89,44.88L390.59,44.12L455.69,39.58L477.38,39.35L499.08,38.54L520.78,35.77L542.48,33.16L564.18,33.8L585.88,34.95L607.58,32.47L629.28,31.87" style="vector-effect: none; fill: none; stroke: rgb(0, 204, 150); stroke-opacity: 1; stroke-width: 2px; opacity: 1;"/></g><g class="points"/><g class="text"/></g><g class="trace scatter trace7078af" style="stroke-miterlimit: 2; opacity: 1;"><g class="fills"/><g class="errorbars"/><g class="lines"><path class="js-line" d="M0,378.69L21.7,260.62L43.4,215.01L65.1,186.78L86.8,167.36L130.2,148.99L151.9,136.87L173.59,126.17L195.29,114.16L216.99,101.01L238.69,93.59L260.39,86.93L282.09,81.7L303.79,76.35L325.49,72.28L347.19,65.87L368.89,63.86L390.59,64.31L412.29,58.89L433.99,54.88L455.69,54.24L477.38,54.57L499.08,50.51L520.78,49.84L542.48,46.03L564.18,48.34L585.88,42.25L607.58,42.57L629.28,41.41" style="vector-effect: none; fill: none; stroke: rgb(171, 99, 250); stroke-opacity: 1; stroke-width: 2px; opacity: 1;"/></g><g class="points"/><g class="text"/></g></g></g></g><g class="zerolinelayer-above"/><path class="xlines-above crisp" d="M63,1140.5H693.28" style="fill: none; stroke-width: 1px; stroke: rgb(36, 36, 36); stroke-opacity: 1;"/><path class="ylines-above crisp" d="M63.5,638.6V1140" style="fill: none; stroke-width: 1px; stroke: rgb(36, 36, 36); stroke-opacity: 1;"/><g class="overlines-above"/><g class="xaxislayer-above"><path class="x3tick ticks crisp" d="M0,1141v5" transform="translate(64,0)" style="stroke: rgb(68, 68, 68); stroke-opacity: 1; stroke-width: 1px;"/><path class="x3tick ticks crisp" d="M0,1141v5" transform="translate(172.5,0)" style="stroke: rgb(68, 68, 68); stroke-opacity: 1; stroke-width: 1px;"/><path class="x3tick ticks crisp" d="M0,1141v5" transform="translate(280.99,0)" style="stroke: rgb(68, 68, 68); stroke-opacity: 1; stroke-width: 1px;"/><path class="x3tick ticks crisp" d="M0,1141v5" transform="translate(389.49,0)" style="stroke: rgb(68, 68, 68); stroke-opacity: 1; stroke-width: 1px;"/><path class="x3tick ticks crisp" d="M0,1141v5" transform="translate(497.99,0)" style="stroke: rgb(68, 68, 68); stroke-opacity: 1; stroke-width: 1px;"/><path class="x3tick ticks crisp" d="M0,1141v5" transform="translate(606.48,0)" style="stroke: rgb(68, 68, 68); stroke-opacity: 1; stroke-width: 1px;"/><g class="x3tick"><text text-anchor="middle" x="0" y="1160.4" transform="translate(64,0)" style="font-family: 'Open Sans', verdana, arial, sans-serif; font-size: 12px; fill: rgb(36, 36, 36); fill-opacity: 1; white-space: pre;">0</text></g><g class="x3tick"><text text-anchor="middle" x="0" y="1160.4" style="font-family: 'Open Sans', verdana, arial, sans-serif; font-size: 12px; fill: rgb(36, 36, 36); fill-opacity: 1; white-space: pre;" transform="translate(172.5,0)">5</text></g><g class="x3tick"><text text-anchor="middle" x="0" y="1160.4" style="font-family: 'Open Sans', verdana, arial, sans-serif; font-size: 12px; fill: rgb(36, 36, 36); fill-opacity: 1; white-space: pre;" transform="translate(280.99,0)">10</text></g><g class="x3tick"><text text-anchor="middle" x="0" y="1160.4" style="font-family: 'Open Sans', verdana, arial, sans-serif; font-size: 12px; fill: rgb(36, 36, 36); fill-opacity: 1; white-space: pre;" transform="translate(389.49,0)">15</text></g><g class="x3tick"><text text-anchor="middle" x="0" y="1160.4" style="font-family: 'Open Sans', verdana, arial, sans-serif; font-size: 12px; fill: rgb(36, 36, 36); fill-opacity: 1; white-space: pre;" transform="translate(497.99,0)">20</text></g><g class="x3tick"><text text-anchor="middle" x="0" y="1160.4" style="font-family: 'Open Sans', verdana, arial, sans-serif; font-size: 12px; fill: rgb(36, 36, 36); fill-opacity: 1; white-space: pre;" transform="translate(606.48,0)">25</text></g></g><g class="yaxislayer-above"><path class="y3tick ticks crisp" d="M63,0h-5" transform="translate(0,1135.89)" style="stroke: rgb(68, 68, 68); stroke-opacity: 1; stroke-width: 1px;"/><path class="y3tick ticks crisp" d="M63,0h-5" transform="translate(0,1083.21)" style="stroke: rgb(68, 68, 68); stroke-opacity: 1; stroke-width: 1px;"/><path class="y3tick ticks crisp" d="M63,0h-5" transform="translate(0,1030.54)" style="stroke: rgb(68, 68, 68); stroke-opacity: 1; stroke-width: 1px;"/><path class="y3tick ticks crisp" d="M63,0h-5" transform="translate(0,977.87)" style="stroke: rgb(68, 68, 68); stroke-opacity: 1; stroke-width: 1px;"/><path class="y3tick ticks crisp" d="M63,0h-5" transform="translate(0,925.2)" style="stroke: rgb(68, 68, 68); stroke-opacity: 1; stroke-width: 1px;"/><path class="y3tick ticks crisp" d="M63,0h-5" transform="translate(0,872.53)" style="stroke: rgb(68, 68, 68); stroke-opacity: 1; stroke-width: 1px;"/><path class="y3tick ticks crisp" d="M63,0h-5" transform="translate(0,819.86)" style="stroke: rgb(68, 68, 68); stroke-opacity: 1; stroke-width: 1px;"/><path class="y3tick ticks crisp" d="M63,0h-5" transform="translate(0,767.19)" style="stroke: rgb(68, 68, 68); stroke-opacity: 1; stroke-width: 1px;"/><path class="y3tick ticks crisp" d="M63,0h-5" transform="translate(0,714.52)" style="stroke: rgb(68, 68, 68); stroke-opacity: 1; stroke-width: 1px;"/><path class="y3tick ticks crisp" d="M63,0h-5" transform="translate(0,661.85)" style="stroke: rgb(68, 68, 68); stroke-opacity: 1; stroke-width: 1px;"/><g class="y3tick"><text text-anchor="end" x="55.6" y="4.199999999999999" transform="translate(0,1135.89)" style="font-family: 'Open Sans', verdana, arial, sans-serif; font-size: 12px; fill: rgb(36, 36, 36); fill-opacity: 1; white-space: pre;">0.1</text></g><g class="y3tick"><text text-anchor="end" x="55.6" y="4.199999999999999" style="font-family: 'Open Sans', verdana, arial, sans-serif; font-size: 12px; fill: rgb(36, 36, 36); fill-opacity: 1; white-space: pre;" transform="translate(0,1083.21)">0.2</text></g><g class="y3tick"><text text-anchor="end" x="55.6" y="4.199999999999999" style="font-family: 'Open Sans', verdana, arial, sans-serif; font-size: 12px; fill: rgb(36, 36, 36); fill-opacity: 1; white-space: pre;" transform="translate(0,1030.54)">0.3</text></g><g class="y3tick"><text text-anchor="end" x="55.6" y="4.199999999999999" style="font-family: 'Open Sans', verdana, arial, sans-serif; font-size: 12px; fill: rgb(36, 36, 36); fill-opacity: 1; white-space: pre;" transform="translate(0,977.87)">0.4</text></g><g class="y3tick"><text text-anchor="end" x="55.6" y="4.199999999999999" style="font-family: 'Open Sans', verdana, arial, sans-serif; font-size: 12px; fill: rgb(36, 36, 36); fill-opacity: 1; white-space: pre;" transform="translate(0,925.2)">0.5</text></g><g class="y3tick"><text text-anchor="end" x="55.6" y="4.199999999999999" style="font-family: 'Open Sans', verdana, arial, sans-serif; font-size: 12px; fill: rgb(36, 36, 36); fill-opacity: 1; white-space: pre;" transform="translate(0,872.53)">0.6</text></g><g class="y3tick"><text text-anchor="end" x="55.6" y="4.199999999999999" style="font-family: 'Open Sans', verdana, arial, sans-serif; font-size: 12px; fill: rgb(36, 36, 36); fill-opacity: 1; white-space: pre;" transform="translate(0,819.86)">0.7</text></g><g class="y3tick"><text text-anchor="end" x="55.6" y="4.199999999999999" style="font-family: 'Open Sans', verdana, arial, sans-serif; font-size: 12px; fill: rgb(36, 36, 36); fill-opacity: 1; white-space: pre;" transform="translate(0,767.19)">0.8</text></g><g class="y3tick"><text text-anchor="end" x="55.6" y="4.199999999999999" style="font-family: 'Open Sans', verdana, arial, sans-serif; font-size: 12px; fill: rgb(36, 36, 36); fill-opacity: 1; white-space: pre;" transform="translate(0,714.52)">0.9</text></g><g class="y3tick"><text text-anchor="end" x="55.6" y="4.199999999999999" style="font-family: 'Open Sans', verdana, arial, sans-serif; font-size: 12px; fill: rgb(36, 36, 36); fill-opacity: 1; white-space: pre;" transform="translate(0,661.85)">1</text></g></g><g class="overaxes-above"/></g><g class="subplot x4y4"><g class="layer-subplot"><g class="shapelayer"/><g class="imagelayer"/></g><g class="minor-gridlayer"><g class="x4"/><g class="y4"/></g><g class="gridlayer"><g class="x4"/><g class="y4"/></g><g class="zerolinelayer"/><g class="layer-between"><g class="shapelayer"/><g class="imagelayer"/></g><path class="xlines-below"/><path class="ylines-below"/><g class="overlines-below"/><g class="xaxislayer-below"/><g class="yaxislayer-below"/><g class="overaxes-below"/><g class="overplot"><g class="x4y4" transform="translate(745.72,638.6)" clip-path="url(#clip907230x4y4plot)"><g class="scatterlayer mlayer"><g class="trace scatter traced0ba73" style="stroke-miterlimit: 2; opacity: 1;"><g class="fills"/><g class="errorbars"/><g class="lines"><path class="js-line" d="M0,199.44L21.7,350.19L43.4,386.46L65.1,408.91L86.8,421.8L130.2,440.26L151.9,446.1L173.59,453.01L195.29,454.75L216.99,462.56L238.69,465.94L260.39,463.33L282.09,468.2L303.79,469.53L325.49,468.11L347.19,472.04L368.89,472.62L412.29,472.02L433.99,474.07L455.69,472.25L477.38,473.69L520.78,473.26L542.48,475.36L564.18,472.93L585.88,472.23L607.58,476.33L629.28,473.42" style="vector-effect: none; fill: none; stroke: rgb(99, 110, 250); stroke-opacity: 1; stroke-width: 2px; opacity: 1;"/></g><g class="points"/><g class="text"/></g><g class="trace scatter trace952f44" style="stroke-miterlimit: 2; opacity: 1;"><g class="fills"/><g class="errorbars"/><g class="lines"><path class="js-line" d="M0,25.07L21.7,43.45L43.4,267.29L65.1,356.13L86.8,394.77L108.5,412.57L130.2,424.37L173.59,437.81L195.29,442.23L216.99,446.23L238.69,449.13L260.39,451.45L282.09,454.67L303.79,455.6L325.49,459.47L347.19,459.71L368.89,462.32L390.59,462.47L412.29,465.57L433.99,463.34L455.69,464.94L477.38,468.7L499.08,469.73L520.78,471.06L542.48,471.42L564.18,471.44L585.88,472.68L629.28,472.74" style="vector-effect: none; fill: none; stroke: rgb(239, 85, 59); stroke-opacity: 1; stroke-width: 2px; opacity: 1;"/></g><g class="points"/><g class="text"/></g><g class="trace scatter trace34ffa0" style="stroke-miterlimit: 2; opacity: 1;"><g class="fills"/><g class="errorbars"/><g class="lines"><path class="js-line" d="M0,144.12L21.7,278.25L43.4,339.03L65.1,368.64L86.8,387.48L130.2,409.7L151.9,416.75L173.59,421.9L195.29,431.77L216.99,432.42L238.69,438.31L260.39,437.8L282.09,444.97L303.79,445.07L325.49,449.99L347.19,451.52L368.89,454.06L412.29,456.54L433.99,458.25L455.69,460.31L477.38,460.67L499.08,461.51L520.78,464.79L542.48,467.62L564.18,466.53L585.88,465.47L607.58,468.07L629.28,468.74" style="vector-effect: none; fill: none; stroke: rgb(0, 204, 150); stroke-opacity: 1; stroke-width: 2px; opacity: 1;"/></g><g class="points"/><g class="text"/></g><g class="trace scatter trace896c90" style="stroke-miterlimit: 2; opacity: 1;"><g class="fills"/><g class="errorbars"/><g class="lines"><path class="js-line" d="M0,122.77L21.7,240.34L43.4,284.86L65.1,311.93L86.8,330.64L108.5,339.04L130.2,348.57L195.29,380.25L216.99,393.59L260.39,408.17L282.09,413.35L303.79,419.44L325.49,423.51L347.19,430.15L368.89,432.39L390.59,431.9L412.29,438.28L433.99,441.98L455.69,442.81L477.38,442.99L499.08,447.35L520.78,448.32L542.48,452.77L564.18,450.11L585.88,456.35L629.28,457.97" style="vector-effect: none; fill: none; stroke: rgb(171, 99, 250); stroke-opacity: 1; stroke-width: 2px; opacity: 1;"/></g><g class="points"/><g class="text"/></g></g></g></g><g class="zerolinelayer-above"/><path class="xlines-above crisp" d="M744.72,1140.5H1375" style="fill: none; stroke-width: 1px; stroke: rgb(36, 36, 36); stroke-opacity: 1;"/><path class="ylines-above crisp" d="M745.22,638.6V1140" style="fill: none; stroke-width: 1px; stroke: rgb(36, 36, 36); stroke-opacity: 1;"/><g class="overlines-above"/><g class="xaxislayer-above"><path class="x4tick ticks crisp" d="M0,1141v5" transform="translate(745.72,0)" style="stroke: rgb(68, 68, 68); stroke-opacity: 1; stroke-width: 1px;"/><path class="x4tick ticks crisp" d="M0,1141v5" transform="translate(854.22,0)" style="stroke: rgb(68, 68, 68); stroke-opacity: 1; stroke-width: 1px;"/><path class="x4tick ticks crisp" d="M0,1141v5" transform="translate(962.71,0)" style="stroke: rgb(68, 68, 68); stroke-opacity: 1; stroke-width: 1px;"/><path class="x4tick ticks crisp" d="M0,1141v5" transform="translate(1071.21,0)" style="stroke: rgb(68, 68, 68); stroke-opacity: 1; stroke-width: 1px;"/><path class="x4tick ticks crisp" d="M0,1141v5" transform="translate(1179.71,0)" style="stroke: rgb(68, 68, 68); stroke-opacity: 1; stroke-width: 1px;"/><path class="x4tick ticks crisp" d="M0,1141v5" transform="translate(1288.2,0)" style="stroke: rgb(68, 68, 68); stroke-opacity: 1; stroke-width: 1px;"/><g class="x4tick"><text text-anchor="middle" x="0" y="1160.4" transform="translate(745.72,0)" style="font-family: 'Open Sans', verdana, arial, sans-serif; font-size: 12px; fill: rgb(36, 36, 36); fill-opacity: 1; white-space: pre;">0</text></g><g class="x4tick"><text text-anchor="middle" x="0" y="1160.4" style="font-family: 'Open Sans', verdana, arial, sans-serif; font-size: 12px; fill: rgb(36, 36, 36); fill-opacity: 1; white-space: pre;" transform="translate(854.22,0)">5</text></g><g class="x4tick"><text text-anchor="middle" x="0" y="1160.4" style="font-family: 'Open Sans', verdana, arial, sans-serif; font-size: 12px; fill: rgb(36, 36, 36); fill-opacity: 1; white-space: pre;" transform="translate(962.71,0)">10</text></g><g class="x4tick"><text text-anchor="middle" x="0" y="1160.4" style="font-family: 'Open Sans', verdana, arial, sans-serif; font-size: 12px; fill: rgb(36, 36, 36); fill-opacity: 1; white-space: pre;" transform="translate(1071.21,0)">15</text></g><g class="x4tick"><text text-anchor="middle" x="0" y="1160.4" style="font-family: 'Open Sans', verdana, arial, sans-serif; font-size: 12px; fill: rgb(36, 36, 36); fill-opacity: 1; white-space: pre;" transform="translate(1179.71,0)">20</text></g><g class="x4tick"><text text-anchor="middle" x="0" y="1160.4" style="font-family: 'Open Sans', verdana, arial, sans-serif; font-size: 12px; fill: rgb(36, 36, 36); fill-opacity: 1; white-space: pre;" transform="translate(1288.2,0)">25</text></g></g><g class="yaxislayer-above"><path class="y4tick ticks crisp" d="M744.72,0h-5" transform="translate(0,1117.14)" style="stroke: rgb(68, 68, 68); stroke-opacity: 1; stroke-width: 1px;"/><path class="y4tick ticks crisp" d="M744.72,0h-5" transform="translate(0,1014.54)" style="stroke: rgb(68, 68, 68); stroke-opacity: 1; stroke-width: 1px;"/><path class="y4tick ticks crisp" d="M744.72,0h-5" transform="translate(0,911.94)" style="stroke: rgb(68, 68, 68); stroke-opacity: 1; stroke-width: 1px;"/><path class="y4tick ticks crisp" d="M744.72,0h-5" transform="translate(0,809.34)" style="stroke: rgb(68, 68, 68); stroke-opacity: 1; stroke-width: 1px;"/><path class="y4tick ticks crisp" d="M744.72,0h-5" transform="translate(0,706.74)" style="stroke: rgb(68, 68, 68); stroke-opacity: 1; stroke-width: 1px;"/><g class="y4tick"><text text-anchor="end" x="737.32" y="4.199999999999999" transform="translate(0,1117.14)" style="font-family: 'Open Sans', verdana, arial, sans-serif; font-size: 12px; fill: rgb(36, 36, 36); fill-opacity: 1; white-space: pre;">0</text></g><g class="y4tick"><text text-anchor="end" x="737.32" y="4.199999999999999" style="font-family: 'Open Sans', verdana, arial, sans-serif; font-size: 12px; fill: rgb(36, 36, 36); fill-opacity: 1; white-space: pre;" transform="translate(0,1014.54)">0.5</text></g><g class="y4tick"><text text-anchor="end" x="737.32" y="4.199999999999999" style="font-family: 'Open Sans', verdana, arial, sans-serif; font-size: 12px; fill: rgb(36, 36, 36); fill-opacity: 1; white-space: pre;" transform="translate(0,911.94)">1</text></g><g class="y4tick"><text text-anchor="end" x="737.32" y="4.199999999999999" style="font-family: 'Open Sans', verdana, arial, sans-serif; font-size: 12px; fill: rgb(36, 36, 36); fill-opacity: 1; white-space: pre;" transform="translate(0,809.34)">1.5</text></g><g class="y4tick"><text text-anchor="end" x="737.32" y="4.199999999999999" style="font-family: 'Open Sans', verdana, arial, sans-serif; font-size: 12px; fill: rgb(36, 36, 36); fill-opacity: 1; white-space: pre;" transform="translate(0,706.74)">2</text></g></g><g class="overaxes-above"/></g></g><g class="polarlayer"/><g class="smithlayer"/><g class="ternarylayer"/><g class="geolayer"/><g class="funnelarealayer"/><g class="pielayer"/><g class="iciclelayer"/><g class="treemaplayer"/><g class="sunburstlayer"/><g class="glimages"/><defs id="topdefs-907230"><g class="clips"/><clipPath id="legend907230"><rect width="87" height="116" x="0" y="0"/></clipPath></defs><g class="layer-above"><g class="imagelayer"/><g class="shapelayer"/></g><g class="infolayer"><g class="legend" pointer-events="all" transform="translate(1401.22,50)"><rect class="bg" shape-rendering="crispEdges" style="stroke: rgb(68, 68, 68); stroke-opacity: 1; fill: rgb(255, 255, 255); fill-opacity: 1; stroke-width: 0px;" width="87" height="116" x="0" y="0"/><g class="scrollbox" transform="" clip-path="url(#legend907230)"><g class="groups" transform=""><g class="traces" transform="translate(0,14.5)" style="opacity: 1;"><text class="legendtext" text-anchor="start" x="40" y="4.680000000000001" style="font-family: 'Open Sans', verdana, arial, sans-serif; font-size: 12px; fill: rgb(36, 36, 36); fill-opacity: 1; white-space: pre;">cnn-2</text><g class="layers" style="opacity: 1;"><g class="legendfill"/><g class="legendlines"><path class="js-line" d="M5,0h30" style="fill: none; stroke: rgb(99, 110, 250); stroke-opacity: 1; stroke-width: 2px;"/></g><g class="legendsymbols"><g class="legendpoints"/></g></g><rect class="legendtoggle" x="0" y="-9.5" width="81.421875" height="19" style="fill: rgb(0, 0, 0); fill-opacity: 0;"/></g></g><g class="groups" transform="translate(0,10)"><g class="traces" transform="translate(0,33.5)" style="opacity: 1;"><text class="legendtext" text-anchor="start" x="40" y="4.680000000000001" style="font-family: 'Open Sans', verdana, arial, sans-serif; font-size: 12px; fill: rgb(36, 36, 36); fill-opacity: 1; white-space: pre;">cnn-8</text><g class="layers" style="opacity: 1;"><g class="legendfill"/><g class="legendlines"><path class="js-line" d="M5,0h30" style="fill: none; stroke: rgb(239, 85, 59); stroke-opacity: 1; stroke-width: 2px;"/></g><g class="legendsymbols"><g class="legendpoints"/></g></g><rect class="legendtoggle" x="0" y="-9.5" width="81.421875" height="19" style="fill: rgb(0, 0, 0); fill-opacity: 0;"/></g></g><g class="groups" transform="translate(0,20)"><g class="traces" transform="translate(0,52.5)" style="opacity: 1;"><text class="legendtext" text-anchor="start" x="40" y="4.680000000000001" style="font-family: 'Open Sans', verdana, arial, sans-serif; font-size: 12px; fill: rgb(36, 36, 36); fill-opacity: 1; white-space: pre;">cnn-16</text><g class="layers" style="opacity: 1;"><g class="legendfill"/><g class="legendlines"><path class="js-line" d="M5,0h30" style="fill: none; stroke: rgb(0, 204, 150); stroke-opacity: 1; stroke-width: 2px;"/></g><g class="legendsymbols"><g class="legendpoints"/></g></g><rect class="legendtoggle" x="0" y="-9.5" width="81.421875" height="19" style="fill: rgb(0, 0, 0); fill-opacity: 0;"/></g></g><g class="groups" transform="translate(0,30)"><g class="traces" transform="translate(0,71.5)" style="opacity: 1;"><text class="legendtext" text-anchor="start" x="40" y="4.680000000000001" style="font-family: 'Open Sans', verdana, arial, sans-serif; font-size: 12px; fill: rgb(36, 36, 36); fill-opacity: 1; white-space: pre;">cnn-32</text><g class="layers" style="opacity: 1;"><g class="legendfill"/><g class="legendlines"><path class="js-line" d="M5,0h30" style="fill: none; stroke: rgb(171, 99, 250); stroke-opacity: 1; stroke-width: 2px;"/></g><g class="legendsymbols"><g class="legendpoints"/></g></g><rect class="legendtoggle" x="0" y="-9.5" width="81.421875" height="19" style="fill: rgb(0, 0, 0); fill-opacity: 0;"/></g></g></g><rect class="scrollbar" rx="20" ry="3" width="0" height="0" style="fill: rgb(128, 139, 164); fill-opacity: 1;" x="0" y="0"/></g><g class="g-gtitle"><text class="gtitle" x="750" y="25" text-anchor="middle" dy="0em" style="opacity: 1; font-family: 'Open Sans', verdana, arial, sans-serif; font-size: 17px; fill: rgb(36, 36, 36); fill-opacity: 1; white-space: pre;">CNN Performance Comparison on PathMNIST (128x128)</text></g><g class="g-xtitle"><text class="xtitle" x="378.64" y="599.0998046875" text-anchor="middle" style="opacity: 1; font-family: 'Open Sans', verdana, arial, sans-serif; font-size: 14px; fill: rgb(36, 36, 36); fill-opacity: 1; white-space: pre;">Epoch</text></g><g class="g-x2title"><text class="x2title" x="1060.3600000000001" y="599.0998046875" text-anchor="middle" style="opacity: 1; font-family: 'Open Sans', verdana, arial, sans-serif; font-size: 14px; fill: rgb(36, 36, 36); fill-opacity: 1; white-space: pre;">Epoch</text></g><g class="g-x3title"><text class="x3title" x="378.64" y="1187.700390625" text-anchor="middle" style="opacity: 1; font-family: 'Open Sans', verdana, arial, sans-serif; font-size: 14px; fill: rgb(36, 36, 36); fill-opacity: 1; white-space: pre;">Epoch</text></g><g class="g-x4title"><text class="x4title" x="1060.3600000000001" y="1187.700390625" text-anchor="middle" style="opacity: 1; font-family: 'Open Sans', verdana, arial, sans-serif; font-size: 14px; fill: rgb(36, 36, 36); fill-opacity: 1; white-space: pre;">Epoch</text></g><g class="g-ytitle"><text class="ytitle" transform="rotate(-90,17.105859375,300.7)" x="17.105859375" y="300.7" text-anchor="middle" style="opacity: 1; font-family: 'Open Sans', verdana, arial, sans-serif; font-size: 14px; fill: rgb(36, 36, 36); fill-opacity: 1; white-space: pre;">Accuracy</text></g><g class="g-y2title"><text class="y2title" transform="rotate(-90,698.8265625,300.7)" x="698.8265625" y="300.7" text-anchor="middle" style="opacity: 1; font-family: 'Open Sans', verdana, arial, sans-serif; font-size: 14px; fill: rgb(36, 36, 36); fill-opacity: 1; white-space: pre;">Loss</text></g><g class="g-y3title"><text class="y3title" transform="rotate(-90,17.105859375,889.3000000000001)" x="17.105859375" y="889.3000000000001" text-anchor="middle" style="opacity: 1; font-family: 'Open Sans', verdana, arial, sans-serif; font-size: 14px; fill: rgb(36, 36, 36); fill-opacity: 1; white-space: pre;">Accuracy</text></g><g class="g-y4title"><text class="y4title" transform="rotate(-90,698.8265625,889.3000000000001)" x="698.8265625" y="889.3000000000001" text-anchor="middle" style="opacity: 1; font-family: 'Open Sans', verdana, arial, sans-serif; font-size: 14px; fill: rgb(36, 36, 36); fill-opacity: 1; white-space: pre;">Loss</text></g><g class="annotation" data-index="0" style="opacity: 1;"><g class="annotation-text-g" transform="rotate(0,378.64,38.49999999999999)"><g class="cursor-pointer" transform="translate(260,27)"><rect class="bg" x="0.5" y="0.5" width="237" height="22" style="stroke-width: 1px; stroke: rgb(0, 0, 0); stroke-opacity: 0; fill: rgb(0, 0, 0); fill-opacity: 0;"/><text class="annotation-text" text-anchor="middle" x="119.0546875" y="17" style="font-family: 'Open Sans', verdana, arial, sans-serif; font-size: 16px; fill: rgb(36, 36, 36); fill-opacity: 1; white-space: pre;">Validation Accuracy vs Epoch</text></g></g></g><g class="annotation" data-index="1" style="opacity: 1;"><g class="annotation-text-g" transform="rotate(0,1060.3600000000001,38.49999999999999)"><g class="cursor-pointer" transform="translate(960,27)"><rect class="bg" x="0.5" y="0.5" width="199" height="22" style="stroke-width: 1px; stroke: rgb(0, 0, 0); stroke-opacity: 0; fill: rgb(0, 0, 0); fill-opacity: 0;"/><text class="annotation-text" text-anchor="middle" x="100.078125" y="17" style="font-family: 'Open Sans', verdana, arial, sans-serif; font-size: 16px; fill: rgb(36, 36, 36); fill-opacity: 1; white-space: pre;">Validation Loss vs Epoch</text></g></g></g><g class="annotation" data-index="2" style="opacity: 1;"><g class="annotation-text-g" transform="rotate(0,378.64,627.1)"><g class="cursor-pointer" transform="translate(279,616)"><rect class="bg" x="0.5" y="0.5" width="198" height="22" style="stroke-width: 1px; stroke: rgb(0, 0, 0); stroke-opacity: 0; fill: rgb(0, 0, 0); fill-opacity: 0;"/><text class="annotation-text" text-anchor="middle" x="99.75" y="17" style="font-family: 'Open Sans', verdana, arial, sans-serif; font-size: 16px; fill: rgb(36, 36, 36); fill-opacity: 1; white-space: pre;">Train Accuracy vs Epoch</text></g></g></g><g class="annotation" data-index="3" style="opacity: 1;"><g class="annotation-text-g" transform="rotate(0,1060.3600000000001,627.1)"><g class="cursor-pointer" transform="translate(980,616)"><rect class="bg" x="0.5" y="0.5" width="160" height="22" style="stroke-width: 1px; stroke: rgb(0, 0, 0); stroke-opacity: 0; fill: rgb(0, 0, 0); fill-opacity: 0;"/><text class="annotation-text" text-anchor="middle" x="80.7734375" y="17" style="font-family: 'Open Sans', verdana, arial, sans-serif; font-size: 16px; fill: rgb(36, 36, 36); fill-opacity: 1; white-space: pre;">Train Loss vs Epoch</text></g></g></g></g></svg>