<svg class="main-svg" xmlns="http://www.w3.org/2000/svg" xmlns:xlink="http://www.w3.org/1999/xlink" width="1500" height="600" style="" viewBox="0 0 1500 600"><rect x="0" y="0" width="1500" height="600" style="fill: rgb(255, 255, 255); fill-opacity: 1;"/><defs id="defs-cec867"><g class="clips"><clipPath id="clipcec867xyplot" class="plotclip"><rect width="602.88" height="490"/></clipPath><clipPath id="clipcec867x2y2plot" class="plotclip"><rect width="602.88" height="490"/></clipPath><clipPath class="axesclip" id="clipcec867x"><rect x="72" y="0" width="602.88" height="600"/></clipPath><clipPath class="axesclip" id="clipcec867y"><rect x="0" y="50" width="1500" height="490"/></clipPath><clipPath class="axesclip" id="clipcec867xy"><rect x="72" y="50" width="602.88" height="490"/></clipPath><clipPath class="axesclip" id="clipcec867y2"><rect x="0" y="50" width="1500" height="490"/></clipPath><clipPath class="axesclip" id="clipcec867xy2"><rect x="72" y="50" width="602.88" height="490"/></clipPath><clipPath class="axesclip" id="clipcec867x2"><rect x="725.12" y="0" width="602.88" height="600"/></clipPath><clipPath class="axesclip" id="clipcec867x2y"><rect x="725.12" y="50" width="602.88" height="490"/></clipPath><clipPath class="axesclip" id="clipcec867x2y2"><rect x="725.12" y="50" width="602.88" height="490"/></clipPath></g><g class="gradients"/><g class="patterns"/></defs><g class="bglayer"/><g class="layer-below"><g class="imagelayer"/><g class="shapelayer"/></g><g class="cartesianlayer"><g class="subplot xy"><g class="layer-subplot"><g class="shapelayer"/><g class="imagelayer"/></g><g class="minor-gridlayer"><g class="x"/><g class="y"/></g><g class="gridlayer"><g class="x"/><g class="y"/></g><g class="zerolinelayer"/><g class="layer-between"><g class="shapelayer"/><g class="imagelayer"/></g><path class="xlines-below"/><path class="ylines-below"/><g class="overlines-below"/><g class="xaxislayer-below"/><g class="yaxislayer-below"/><g class="overaxes-below"/><g class="overplot"><g class="xy" transform="translate(72,50)" clip-path="url(#clipcec867xyplot)"><g class="scatterlayer mlayer"><g class="trace scatter trace84eb0b" style="stroke-miterlimit: 2; opacity: 1;"><g class="fills"/><g class="errorbars"/><g class="lines"><path class="js-line" d="M0,388.77L12.3,267.53L24.61,162.32L36.91,333.38L49.21,127.27L61.52,179.92L73.82,391.96L86.13,203.77L98.43,118.93L110.73,215.67L123.04,62.9L135.34,148.29L147.64,293.47L159.95,219.37L172.25,109.58L184.56,135.74L196.86,252.39L209.16,215.25L221.47,152.87L233.77,123.89L246.07,259.66L258.38,234.84L270.68,278.74L282.98,288.42L295.29,189.64L307.59,234.84L319.9,329.22L332.2,281.33L344.5,140.19L356.81,205.2L369.11,178.58L381.41,257.35L393.72,385.71L406.02,146.16L418.32,290.41L430.63,214.83L442.93,308.33L455.24,247.57L467.54,123.28L479.84,393.82L492.15,167.88L504.45,457.3L516.75,74.29L529.06,465.5L541.36,190.52L553.67,130.88L565.97,30.11L578.27,58.96L590.58,223.63L602.88,63.78" style="vector-effect: none; fill: none; stroke: rgb(99, 110, 250); stroke-opacity: 1; stroke-width: 2px; opacity: 1;"/></g><g class="points"/><g class="text"/></g><g class="trace scatter trace1cb1aa" style="stroke-miterlimit: 2; opacity: 1;"><g class="fills"/><g class="errorbars"/><g class="lines"><path class="js-line" d="M0,276.83L12.3,209.92L24.61,198.51L36.91,190.63L49.21,172.42L61.52,172.57L73.82,161.05L86.13,166.01L98.43,158.66L110.73,140.96L123.04,146.38L135.34,150.04L147.64,128.63L159.95,136.18L172.25,132.98L184.56,123.72L196.86,112.85L209.16,107.7L221.47,114.24L233.77,101.58L246.07,104.8L258.38,96.78L270.68,102.9L282.98,81.19L295.29,87.47L307.59,102.35L319.9,91.45L332.2,75.06L344.5,72.49L356.81,69.04L369.11,88.84L381.41,63.56L393.72,56.74L406.02,68.47L418.32,58.34L430.63,65.69L442.93,46.75L455.24,57.61L467.54,55.29L479.84,53.45L492.15,58.5L504.45,37.24L516.75,37.18L529.06,31.42L541.36,60.21L553.67,36.87L565.97,31.1L578.27,25.49L590.58,24.58L602.88,24.5" style="vector-effect: none; fill: none; stroke: rgb(239, 85, 59); stroke-opacity: 1; stroke-width: 2px; opacity: 1;"/></g><g class="points"/><g class="text"/></g></g></g></g><g class="zerolinelayer-above"/><path class="xlines-above crisp" d="M71,540.5H674.88" style="fill: none; stroke-width: 1px; stroke: rgb(36, 36, 36); stroke-opacity: 1;"/><path class="ylines-above crisp" d="M71.5,50V540" style="fill: none; stroke-width: 1px; stroke: rgb(36, 36, 36); stroke-opacity: 1;"/><g class="overlines-above"/><g class="xaxislayer-above"><path class="xtick ticks crisp" d="M0,541v5" transform="translate(72,0)" style="stroke: rgb(68, 68, 68); stroke-opacity: 1; stroke-width: 1px;"/><path class="xtick ticks crisp" d="M0,541v5" transform="translate(195.04000000000002,0)" style="stroke: rgb(68, 68, 68); stroke-opacity: 1; stroke-width: 1px;"/><path class="xtick ticks crisp" d="M0,541v5" transform="translate(318.07,0)" style="stroke: rgb(68, 68, 68); stroke-opacity: 1; stroke-width: 1px;"/><path class="xtick ticks crisp" d="M0,541v5" transform="translate(441.11,0)" style="stroke: rgb(68, 68, 68); stroke-opacity: 1; stroke-width: 1px;"/><path class="xtick ticks crisp" d="M0,541v5" transform="translate(564.15,0)" style="stroke: rgb(68, 68, 68); stroke-opacity: 1; stroke-width: 1px;"/><g class="xtick"><text text-anchor="middle" x="0" y="560.4" transform="translate(72,0)" style="font-family: 'Open Sans', verdana, arial, sans-serif; font-size: 12px; fill: rgb(36, 36, 36); fill-opacity: 1; white-space: pre;">0</text></g><g class="xtick"><text text-anchor="middle" x="0" y="560.4" style="font-family: 'Open Sans', verdana, arial, sans-serif; font-size: 12px; fill: rgb(36, 36, 36); fill-opacity: 1; white-space: pre;" transform="translate(195.04000000000002,0)">10</text></g><g class="xtick"><text text-anchor="middle" x="0" y="560.4" style="font-family: 'Open Sans', verdana, arial, sans-serif; font-size: 12px; fill: rgb(36, 36, 36); fill-opacity: 1; white-space: pre;" transform="translate(318.07,0)">20</text></g><g class="xtick"><text text-anchor="middle" x="0" y="560.4" style="font-family: 'Open Sans', verdana, arial, sans-serif; font-size: 12px; fill: rgb(36, 36, 36); fill-opacity: 1; white-space: pre;" transform="translate(441.11,0)">30</text></g><g class="xtick"><text text-anchor="middle" x="0" y="560.4" style="font-family: 'Open Sans', verdana, arial, sans-serif; font-size: 12px; fill: rgb(36, 36, 36); fill-opacity: 1; white-space: pre;" transform="translate(564.15,0)">40</text></g></g><g class="yaxislayer-above"><path class="ytick ticks crisp" d="M71,0h-5" transform="translate(0,474.42)" style="stroke: rgb(68, 68, 68); stroke-opacity: 1; stroke-width: 1px;"/><path class="ytick ticks crisp" d="M71,0h-5" transform="translate(0,358.1)" style="stroke: rgb(68, 68, 68); stroke-opacity: 1; stroke-width: 1px;"/><path class="ytick ticks crisp" d="M71,0h-5" transform="translate(0,241.77)" style="stroke: rgb(68, 68, 68); stroke-opacity: 1; stroke-width: 1px;"/><path class="ytick ticks crisp" d="M71,0h-5" transform="translate(0,125.45)" style="stroke: rgb(68, 68, 68); stroke-opacity: 1; stroke-width: 1px;"/><g class="ytick"><text text-anchor="end" x="63.6" y="4.199999999999999" transform="translate(0,474.42)" style="font-family: 'Open Sans', verdana, arial, sans-serif; font-size: 12px; fill: rgb(36, 36, 36); fill-opacity: 1; white-space: pre;">0.15</text></g><g class="ytick"><text text-anchor="end" x="63.6" y="4.199999999999999" style="font-family: 'Open Sans', verdana, arial, sans-serif; font-size: 12px; fill: rgb(36, 36, 36); fill-opacity: 1; white-space: pre;" transform="translate(0,358.1)">0.2</text></g><g class="ytick"><text text-anchor="end" x="63.6" y="4.199999999999999" style="font-family: 'Open Sans', verdana, arial, sans-serif; font-size: 12px; fill: rgb(36, 36, 36); fill-opacity: 1; white-space: pre;" transform="translate(0,241.77)">0.25</text></g><g class="ytick"><text text-anchor="end" x="63.6" y="4.199999999999999" style="font-family: 'Open Sans', verdana, arial, sans-serif; font-size: 12px; fill: rgb(36, 36, 36); fill-opacity: 1; white-space: pre;" transform="translate(0,125.45)">0.3</text></g></g><g class="overaxes-above"/></g><g class="subplot x2y2"><g class="layer-subplot"><g class="shapelayer"/><g class="imagelayer"/></g><g class="minor-gridlayer"><g class="x2"/><g class="y2"/></g><g class="gridlayer"><g class="x2"/><g class="y2"/></g><g class="zerolinelayer"/><g class="layer-between"><g class="shapelayer"/><g class="imagelayer"/></g><path class="xlines-below"/><path class="ylines-below"/><g class="overlines-below"/><g class="xaxislayer-below"/><g class="yaxislayer-below"/><g class="overaxes-below"/><g class="overplot"><g class="x2y2" transform="translate(725.12,50)" clip-path="url(#clipcec867x2y2plot)"><g class="scatterlayer mlayer"><g class="trace scatter trace6cf2bd" style="stroke-miterlimit: 2; opacity: 1;"><g class="fills"/><g class="errorbars"/><g class="lines"><path class="js-line" d="M0,302.29L12.3,303.33L24.61,465.5L36.91,326.74L49.21,302.35L61.52,417.09L73.82,199.88L86.13,185.88L98.43,413.71L110.73,364.17L123.04,318.1L135.34,456.34L147.64,410.99L159.95,422.01L172.25,418.08L184.56,356.7L196.86,384.32L209.16,357.81L221.47,364.24L233.77,327.04L246.07,268.34L258.38,359.6L270.68,185.22L282.98,310.53L295.29,379.28L307.59,379.14L319.9,316.75L332.2,335.82L344.5,218.96L356.81,178.66L369.11,387.49L381.41,291.06L393.72,200.7L406.02,417.48L418.32,397.33L430.63,332.53L442.93,319.88L467.54,437.89L479.84,259.61L492.15,385.71L504.45,24.5L516.75,405.15L529.06,268.7L541.36,387.91L553.67,299.86L565.97,366.69L578.27,381.74L590.58,376.29L602.88,416.69" style="vector-effect: none; fill: none; stroke: rgb(99, 110, 250); stroke-opacity: 1; stroke-width: 2px; opacity: 1;"/></g><g class="points"/><g class="text"/></g><g class="trace scatter trace931a47" style="stroke-miterlimit: 2; opacity: 1;"><g class="fills"/><g class="errorbars"/><g class="lines"><path class="js-line" d="M0,314.61L12.3,358.63L24.61,363.19L36.91,348.79L49.21,366.68L61.52,366.26L73.82,380.75L86.13,356.59L98.43,373.15L110.73,371.23L123.04,377.14L135.34,368.65L147.64,375.77L159.95,372.61L172.25,377.81L184.56,379.56L196.86,384.71L209.16,385.97L221.47,384.47L233.77,386.69L246.07,385.05L258.38,391.23L270.68,383.89L282.98,395.78L295.29,395.02L307.59,374.55L319.9,384.73L332.2,399.93L344.5,400.75L356.81,400.82L369.11,374.68L381.41,403.59L393.72,402.46L406.02,395.17L418.32,397.36L430.63,392.21L442.93,407.78L455.24,406.19L467.54,398.16L492.15,399.87L504.45,411.22L516.75,400.13L529.06,406.77L541.36,391.63L553.67,402.38L565.97,404.98L578.27,410.78L590.58,413.03L602.88,403.38" style="vector-effect: none; fill: none; stroke: rgb(239, 85, 59); stroke-opacity: 1; stroke-width: 2px; opacity: 1;"/></g><g class="points"/><g class="text"/></g></g></g></g><g class="zerolinelayer-above"/><path class="xlines-above crisp" d="M724.12,540.5H1328" style="fill: none; stroke-width: 1px; stroke: rgb(36, 36, 36); stroke-opacity: 1;"/><path class="ylines-above crisp" d="M724.62,50V540" style="fill: none; stroke-width: 1px; stroke: rgb(36, 36, 36); stroke-opacity: 1;"/><g class="overlines-above"/><g class="xaxislayer-above"><path class="x2tick ticks crisp" d="M0,541v5" transform="translate(725.12,0)" style="stroke: rgb(68, 68, 68); stroke-opacity: 1; stroke-width: 1px;"/><path class="x2tick ticks crisp" d="M0,541v5" transform="translate(848.16,0)" style="stroke: rgb(68, 68, 68); stroke-opacity: 1; stroke-width: 1px;"/><path class="x2tick ticks crisp" d="M0,541v5" transform="translate(971.19,0)" style="stroke: rgb(68, 68, 68); stroke-opacity: 1; stroke-width: 1px;"/><path class="x2tick ticks crisp" d="M0,541v5" transform="translate(1094.23,0)" style="stroke: rgb(68, 68, 68); stroke-opacity: 1; stroke-width: 1px;"/><path class="x2tick ticks crisp" d="M0,541v5" transform="translate(1217.27,0)" style="stroke: rgb(68, 68, 68); stroke-opacity: 1; stroke-width: 1px;"/><g class="x2tick"><text text-anchor="middle" x="0" y="560.4" transform="translate(725.12,0)" style="font-family: 'Open Sans', verdana, arial, sans-serif; font-size: 12px; fill: rgb(36, 36, 36); fill-opacity: 1; white-space: pre;">0</text></g><g class="x2tick"><text text-anchor="middle" x="0" y="560.4" style="font-family: 'Open Sans', verdana, arial, sans-serif; font-size: 12px; fill: rgb(36, 36, 36); fill-opacity: 1; white-space: pre;" transform="translate(848.16,0)">10</text></g><g class="x2tick"><text text-anchor="middle" x="0" y="560.4" style="font-family: 'Open Sans', verdana, arial, sans-serif; font-size: 12px; fill: rgb(36, 36, 36); fill-opacity: 1; white-space: pre;" transform="translate(971.19,0)">20</text></g><g class="x2tick"><text text-anchor="middle" x="0" y="560.4" style="font-family: 'Open Sans', verdana, arial, sans-serif; font-size: 12px; fill: rgb(36, 36, 36); fill-opacity: 1; white-space: pre;" transform="translate(1094.23,0)">30</text></g><g class="x2tick"><text text-anchor="middle" x="0" y="560.4" style="font-family: 'Open Sans', verdana, arial, sans-serif; font-size: 12px; fill: rgb(36, 36, 36); fill-opacity: 1; white-space: pre;" transform="translate(1217.27,0)">40</text></g></g><g class="yaxislayer-above"><path class="y2tick ticks crisp" d="M724.12,0h-5" transform="translate(0,481.61)" style="stroke: rgb(68, 68, 68); stroke-opacity: 1; stroke-width: 1px;"/><path class="y2tick ticks crisp" d="M724.12,0h-5" transform="translate(0,397.46)" style="stroke: rgb(68, 68, 68); stroke-opacity: 1; stroke-width: 1px;"/><path class="y2tick ticks crisp" d="M724.12,0h-5" transform="translate(0,313.31)" style="stroke: rgb(68, 68, 68); stroke-opacity: 1; stroke-width: 1px;"/><path class="y2tick ticks crisp" d="M724.12,0h-5" transform="translate(0,229.16)" style="stroke: rgb(68, 68, 68); stroke-opacity: 1; stroke-width: 1px;"/><path class="y2tick ticks crisp" d="M724.12,0h-5" transform="translate(0,145.01)" style="stroke: rgb(68, 68, 68); stroke-opacity: 1; stroke-width: 1px;"/><path class="y2tick ticks crisp" d="M724.12,0h-5" transform="translate(0,60.86)" style="stroke: rgb(68, 68, 68); stroke-opacity: 1; stroke-width: 1px;"/><g class="y2tick"><text text-anchor="end" x="716.72" y="4.199999999999999" transform="translate(0,481.61)" style="font-family: 'Open Sans', verdana, arial, sans-serif; font-size: 12px; fill: rgb(36, 36, 36); fill-opacity: 1; white-space: pre;">4</text></g><g class="y2tick"><text text-anchor="end" x="716.72" y="4.199999999999999" style="font-family: 'Open Sans', verdana, arial, sans-serif; font-size: 12px; fill: rgb(36, 36, 36); fill-opacity: 1; white-space: pre;" transform="translate(0,397.46)">6</text></g><g class="y2tick"><text text-anchor="end" x="716.72" y="4.199999999999999" style="font-family: 'Open Sans', verdana, arial, sans-serif; font-size: 12px; fill: rgb(36, 36, 36); fill-opacity: 1; white-space: pre;" transform="translate(0,313.31)">8</text></g><g class="y2tick"><text text-anchor="end" x="716.72" y="4.199999999999999" style="font-family: 'Open Sans', verdana, arial, sans-serif; font-size: 12px; fill: rgb(36, 36, 36); fill-opacity: 1; white-space: pre;" transform="translate(0,229.16)">10</text></g><g class="y2tick"><text text-anchor="end" x="716.72" y="4.199999999999999" style="font-family: 'Open Sans', verdana, arial, sans-serif; font-size: 12px; fill: rgb(36, 36, 36); fill-opacity: 1; white-space: pre;" transform="translate(0,145.01)">12</text></g><g class="y2tick"><text text-anchor="end" x="716.72" y="4.199999999999999" style="font-family: 'Open Sans', verdana, arial, sans-serif; font-size: 12px; fill: rgb(36, 36, 36); fill-opacity: 1; white-space: pre;" transform="translate(0,60.86)">14</text></g></g><g class="overaxes-above"/></g></g><g class="polarlayer"/><g class="smithlayer"/><g class="ternarylayer"/><g class="geolayer"/><g class="funnelarealayer"/><g class="pielayer"/><g class="iciclelayer"/><g class="treemaplayer"/><g class="sunburstlayer"/><g class="glimages"/><defs id="topdefs-cec867"><g class="clips"/><clipPath id="legendcec867"><rect width="135" height="58" x="0" y="0"/></clipPath></defs><g class="layer-above"><g class="imagelayer"/><g class="shapelayer"/></g><g class="infolayer"><g class="legend" pointer-events="all" transform="translate(1353.1200000000001,50)"><rect class="bg" shape-rendering="crispEdges" style="stroke: rgb(68, 68, 68); stroke-opacity: 1; fill: rgb(255, 255, 255); fill-opacity: 1; stroke-width: 0px;" width="135" height="58" x="0" y="0"/><g class="scrollbox" transform="" clip-path="url(#legendcec867)"><g class="groups" transform=""><g class="traces" transform="translate(0,14.5)" style="opacity: 1;"><text class="legendtext" text-anchor="start" x="40" y="4.680000000000001" style="font-family: 'Open Sans', verdana, arial, sans-serif; font-size: 12px; fill: rgb(36, 36, 36); fill-opacity: 1; white-space: pre;">softmax (val)</text><g class="layers" style="opacity: 1;"><g class="legendfill"/><g class="legendlines"><path class="js-line" d="M5,0h30" style="fill: none; stroke: rgb(99, 110, 250); stroke-opacity: 1; stroke-width: 2px;"/></g><g class="legendsymbols"><g class="legendpoints"/></g></g><rect class="legendtoggle" x="0" y="-9.5" width="129.578125" height="19" style="fill: rgb(0, 0, 0); fill-opacity: 0;"/></g></g><g class="groups" transform="translate(0,10)"><g class="traces" transform="translate(0,33.5)" style="opacity: 1;"><text class="legendtext" text-anchor="start" x="40" y="4.680000000000001" style="font-family: 'Open Sans', verdana, arial, sans-serif; font-size: 12px; fill: rgb(36, 36, 36); fill-opacity: 1; white-space: pre;">softmax (train)</text><g class="layers" style="opacity: 1;"><g class="legendfill"/><g class="legendlines"><path class="js-line" d="M5,0h30" style="fill: none; stroke: rgb(239, 85, 59); stroke-opacity: 1; stroke-width: 2px;"/></g><g class="legendsymbols"><g class="legendpoints"/></g></g><rect class="legendtoggle" x="0" y="-9.5" width="129.578125" height="19" style="fill: rgb(0, 0, 0); fill-opacity: 0;"/></g></g></g><rect class="scrollbar" rx="20" ry="3" width="0" height="0" style="fill: rgb(128, 139, 164); fill-opacity: 1;" x="0" y="0"/></g><g class="g-gtitle"><text class="gtitle" x="750" y="25" text-anchor="middle" dy="0em" style="opacity: 1; font-family: 'Open Sans', verdana, arial, sans-serif; font-size: 17px; fill: rgb(36, 36, 36); fill-opacity: 1; white-space: pre;">Softmax performance on PathMNIST (128x128)</text></g><g class="g-xtitle"><text class="xtitle" x="373.44" y="587.700390625" text-anchor="middle" style="opacity: 1; font-family: 'Open Sans', verdana, arial, sans-serif; font-size: 14px; fill: rgb(36, 36, 36); fill-opacity: 1; white-space: pre;">Epoch</text></g><g class="g-x2title"><text class="x2title" x="1026.56" y="587.700390625" text-anchor="middle" style="opacity: 1; font-family: 'Open Sans', verdana, arial, sans-serif; font-size: 14px; fill: rgb(36, 36, 36); fill-opacity: 1; white-space: pre;">Epoch</text></g><g class="g-ytitle"><text class="ytitle" transform="rotate(-90,17.480859375,295)" x="17.480859375" y="295" text-anchor="middle" style="opacity: 1; font-family: 'Open Sans', verdana, arial, sans-serif; font-size: 14px; fill: rgb(36, 36, 36); fill-opacity: 1; white-space: pre;">Accuracy</text></g><g class="g-y2title"><text class="y2title" transform="rotate(-90,682.0384765625,295)" x="682.0384765625" y="295" text-anchor="middle" style="opacity: 1; font-family: 'Open Sans', verdana, arial, sans-serif; font-size: 14px; fill: rgb(36, 36, 36); fill-opacity: 1; white-space: pre;">Loss</text></g><g class="annotation" data-index="0" style="opacity: 1;"><g class="annotation-text-g" transform="rotate(0,373.44,38.49999999999999)"><g class="cursor-pointer" transform="translate(296,27)"><rect class="bg" x="0.5" y="0.5" width="153" height="22" style="stroke-width: 1px; stroke: rgb(0, 0, 0); stroke-opacity: 0; fill: rgb(0, 0, 0); fill-opacity: 0;"/><text class="annotation-text" text-anchor="middle" x="77.0078125" y="17" style="font-family: 'Open Sans', verdana, arial, sans-serif; font-size: 16px; fill: rgb(36, 36, 36); fill-opacity: 1; white-space: pre;">Accuracy vs Epoch</text></g></g></g><g class="annotation" data-index="1" style="opacity: 1;"><g class="annotation-text-g" transform="rotate(0,1026.56,38.5)"><g class="cursor-pointer" transform="translate(969,27)"><rect class="bg" x="0.5" y="0.5" width="115" height="22" style="stroke-width: 1px; stroke: rgb(0, 0, 0); stroke-opacity: 0; fill: rgb(0, 0, 0); fill-opacity: 0;"/><text class="annotation-text" text-anchor="middle" x="58.03125" y="17" style="font-family: 'Open Sans', verdana, arial, sans-serif; font-size: 16px; fill: rgb(36, 36, 36); fill-opacity: 1; white-space: pre;">Loss vs Epoch</text></g></g></g></g></svg>